%TF.GenerationSoftware,KiCad,Pcbnew,10.0.3*%
%TF.CreationDate,2026-08-11T23:10:56+05:30*%
%TF.ProjectId,esp32-c3-mini,65737033-322d-4633-932d-6d696e692e6b,rev?*%
%TF.SameCoordinates,Original*%
%TF.FileFunction,Soldermask,Top*%
%TF.FilePolarity,Negative*%
%FSLAX46Y46*%
G04 Gerber Fmt 4.6, Leading zero omitted, Abs format (unit mm)*
G04 Created by KiCad (PCBNEW 10.0.3) date 2026-08-11 23:10:56*
%MOMM*%
%LPD*%
G01*
G04 APERTURE LIST*
G04 Aperture macros list*
%AMRoundRect*
0 Rectangle with rounded corners*
0 $1 Rounding radius*
0 $2 $3 $4 $5 $6 $7 $8 $9 X,Y pos of 4 corners*
0 Add a 4 corners polygon primitive as box body*
4,1,4,$2,$3,$4,$5,$6,$7,$8,$9,$2,$3,0*
0 Add four circle primitives for the rounded corners*
1,1,$1+$1,$2,$3*
1,1,$1+$1,$4,$5*
1,1,$1+$1,$6,$7*
1,1,$1+$1,$8,$9*
0 Add four rect primitives between the rounded corners*
20,1,$1+$1,$2,$3,$4,$5,0*
20,1,$1+$1,$4,$5,$6,$7,0*
20,1,$1+$1,$6,$7,$8,$9,0*
20,1,$1+$1,$8,$9,$2,$3,0*%
G04 Aperture macros list end*
%ADD10RoundRect,0.140000X-0.170000X0.140000X-0.170000X-0.140000X0.170000X-0.140000X0.170000X0.140000X0*%
%ADD11RoundRect,0.250000X0.250000X0.475000X-0.250000X0.475000X-0.250000X-0.475000X0.250000X-0.475000X0*%
%ADD12RoundRect,0.135000X0.185000X-0.135000X0.185000X0.135000X-0.185000X0.135000X-0.185000X-0.135000X0*%
%ADD13RoundRect,0.250000X0.475000X-0.250000X0.475000X0.250000X-0.475000X0.250000X-0.475000X-0.250000X0*%
%ADD14RoundRect,0.150000X0.150000X-0.512500X0.150000X0.512500X-0.150000X0.512500X-0.150000X-0.512500X0*%
%ADD15R,0.900000X1.700000*%
%ADD16C,0.650000*%
%ADD17RoundRect,0.150000X-0.150000X-0.470000X0.150000X-0.470000X0.150000X0.470000X-0.150000X0.470000X0*%
%ADD18RoundRect,0.075000X-0.075000X-0.545000X0.075000X-0.545000X0.075000X0.545000X-0.075000X0.545000X0*%
%ADD19O,1.000000X2.100000*%
%ADD20O,1.000000X1.800000*%
%ADD21R,1.800000X1.000000*%
%ADD22RoundRect,0.100000X0.100000X-0.130000X0.100000X0.130000X-0.100000X0.130000X-0.100000X-0.130000X0*%
%ADD23R,1.500000X0.900000*%
%ADD24C,0.600000*%
%ADD25R,2.900000X2.900000*%
%ADD26RoundRect,0.150000X0.512500X0.150000X-0.512500X0.150000X-0.512500X-0.150000X0.512500X-0.150000X0*%
%ADD27RoundRect,0.250000X-0.250000X-0.475000X0.250000X-0.475000X0.250000X0.475000X-0.250000X0.475000X0*%
%ADD28RoundRect,0.100000X-0.100000X0.130000X-0.100000X-0.130000X0.100000X-0.130000X0.100000X0.130000X0*%
%ADD29RoundRect,0.250000X-0.475000X0.250000X-0.475000X-0.250000X0.475000X-0.250000X0.475000X0.250000X0*%
%ADD30RoundRect,0.135000X-0.135000X-0.185000X0.135000X-0.185000X0.135000X0.185000X-0.135000X0.185000X0*%
%ADD31RoundRect,0.250000X0.450000X-0.262500X0.450000X0.262500X-0.450000X0.262500X-0.450000X-0.262500X0*%
%ADD32RoundRect,0.125000X0.125000X0.225000X-0.125000X0.225000X-0.125000X-0.225000X0.125000X-0.225000X0*%
%ADD33R,1.700000X1.700000*%
%ADD34C,1.700000*%
G04 APERTURE END LIST*
D10*
%TO.C,C9*%
X134770000Y-95740000D03*
X134770000Y-96700000D03*
%TD*%
D11*
%TO.C,C1*%
X140360000Y-89410000D03*
X138460000Y-89410000D03*
%TD*%
%TO.C,C2*%
X140340000Y-87170000D03*
X138440000Y-87170000D03*
%TD*%
D12*
%TO.C,R2*%
X140680000Y-92540000D03*
X140680000Y-91520000D03*
%TD*%
D10*
%TO.C,C6*%
X129350000Y-68850000D03*
X129350000Y-69810000D03*
%TD*%
D13*
%TO.C,C3*%
X137490000Y-85092500D03*
X137490000Y-83192500D03*
%TD*%
D14*
%TO.C,U1*%
X144710000Y-88675000D03*
X145660000Y-88675000D03*
X146610000Y-88675000D03*
X146610000Y-86400000D03*
X145660000Y-86400000D03*
X144710000Y-86400000D03*
%TD*%
D15*
%TO.C,SW2*%
X148750000Y-98240000D03*
X152150000Y-98240000D03*
%TD*%
D16*
%TO.C,J1*%
X138600000Y-95635000D03*
X144380000Y-95635000D03*
D17*
X138290000Y-94515000D03*
X139090000Y-94515000D03*
D18*
X140240000Y-94515000D03*
X141240000Y-94515000D03*
X141740000Y-94515000D03*
X142740000Y-94515000D03*
D17*
X143890000Y-94515000D03*
X144690000Y-94515000D03*
X144690000Y-94515000D03*
X143890000Y-94515000D03*
D18*
X143240000Y-94515000D03*
X142240000Y-94515000D03*
X140740000Y-94515000D03*
X139740000Y-94515000D03*
D17*
X139090000Y-94515000D03*
X138290000Y-94515000D03*
D19*
X137170000Y-95115000D03*
D20*
X137170000Y-99315000D03*
D19*
X145810000Y-95115000D03*
D20*
X145810000Y-99315000D03*
%TD*%
D21*
%TO.C,Y1*%
X154450000Y-68050000D03*
X154450000Y-70550000D03*
%TD*%
D12*
%TO.C,R1*%
X144280000Y-92750000D03*
X144280000Y-91730000D03*
%TD*%
%TO.C,R9*%
X142480000Y-83280000D03*
X142480000Y-82260000D03*
%TD*%
D22*
%TO.C,C7*%
X152680000Y-68620000D03*
X152680000Y-67980000D03*
%TD*%
D23*
%TO.C,U3*%
X131390000Y-67900000D03*
X131390000Y-69400000D03*
X131390000Y-70900000D03*
X131390000Y-72400000D03*
X131390000Y-73900000D03*
X131390000Y-75400000D03*
X131390000Y-76900000D03*
X131390000Y-78400000D03*
X131390000Y-79900000D03*
X148890000Y-79900000D03*
X148890000Y-78400000D03*
X148890000Y-76900000D03*
X148890000Y-75400000D03*
X148890000Y-73900000D03*
X148890000Y-72400000D03*
X148890000Y-70900000D03*
X148890000Y-69400000D03*
X148890000Y-67900000D03*
D24*
X140000000Y-73550000D03*
X140000000Y-74650000D03*
X140550000Y-73000000D03*
X140550000Y-74100000D03*
X140550000Y-75200000D03*
X141100000Y-73550000D03*
D25*
X141100000Y-74100000D03*
D24*
X141100000Y-74650000D03*
X141650000Y-73000000D03*
X141650000Y-74100000D03*
X141650000Y-75200000D03*
X142200000Y-73550000D03*
X142200000Y-74650000D03*
%TD*%
D26*
%TO.C,U2*%
X135307500Y-85202500D03*
X135307500Y-84252500D03*
X135307500Y-83302500D03*
X133032500Y-83302500D03*
X133032500Y-85202500D03*
%TD*%
D27*
%TO.C,C4*%
X133000000Y-87540000D03*
X134900000Y-87540000D03*
%TD*%
D28*
%TO.C,C8*%
X152710000Y-70825000D03*
X152710000Y-71465000D03*
%TD*%
D29*
%TO.C,C5*%
X127050000Y-68060000D03*
X127050000Y-69960000D03*
%TD*%
D30*
%TO.C,R5*%
X131600000Y-94510000D03*
X132620000Y-94510000D03*
%TD*%
%TO.C,R6*%
X133740000Y-94500000D03*
X134760000Y-94500000D03*
%TD*%
D12*
%TO.C,R8*%
X144370000Y-83230000D03*
X144370000Y-82210000D03*
%TD*%
D31*
%TO.C,R3*%
X142280000Y-88402500D03*
X142280000Y-86577500D03*
%TD*%
D15*
%TO.C,SW1*%
X129960000Y-96890000D03*
X133360000Y-96890000D03*
%TD*%
D30*
%TO.C,R7*%
X151602319Y-95972081D03*
X152622319Y-95972081D03*
%TD*%
D32*
%TO.C,D1*%
X137940000Y-92580000D03*
X137140000Y-92580000D03*
%TD*%
D28*
%TO.C,R4*%
X151810000Y-69480000D03*
X151810000Y-70120000D03*
%TD*%
D10*
%TO.C,C10*%
X153502319Y-97432081D03*
X153502319Y-98392081D03*
%TD*%
D33*
%TO.C,J2*%
X128040000Y-75360000D03*
D34*
X128040000Y-77900000D03*
X128040000Y-80440000D03*
X128040000Y-82980000D03*
X128040000Y-85520000D03*
X128040000Y-88060000D03*
X128040000Y-90600000D03*
X128040000Y-93140000D03*
%TD*%
D33*
%TO.C,J3*%
X153040000Y-75290000D03*
D34*
X153040000Y-77830000D03*
X153040000Y-80370000D03*
X153040000Y-82910000D03*
X153040000Y-85450000D03*
X153040000Y-87990000D03*
X153040000Y-90530000D03*
X153040000Y-93070000D03*
%TD*%
M02*
