%TF.GenerationSoftware,KiCad,Pcbnew,10.0.3*%
%TF.CreationDate,2026-08-11T23:10:56+05:30*%
%TF.ProjectId,esp32-c3-mini,65737033-322d-4633-932d-6d696e692e6b,rev?*%
%TF.SameCoordinates,Original*%
%TF.FileFunction,Legend,Bot*%
%TF.FilePolarity,Positive*%
%FSLAX46Y46*%
G04 Gerber Fmt 4.6, Leading zero omitted, Abs format (unit mm)*
G04 Created by KiCad (PCBNEW 10.0.3) date 2026-08-11 23:10:56*
%MOMM*%
%LPD*%
G01*
G04 APERTURE LIST*
%ADD10C,0.100000*%
%ADD11C,0.120000*%
G04 APERTURE END LIST*
D10*
G36*
X153681252Y-100729947D02*
G01*
X153688580Y-100796091D01*
X153709995Y-100854912D01*
X153745853Y-100908172D01*
X153798061Y-100956910D01*
X153858905Y-100996361D01*
X153921029Y-101023825D01*
X153985116Y-101040154D01*
X154052013Y-101045631D01*
X154110584Y-101041089D01*
X154169339Y-101027303D01*
X154228904Y-101003726D01*
X154289844Y-100969427D01*
X154397442Y-100904182D01*
X154425521Y-100893224D01*
X154453795Y-100897596D01*
X154471973Y-100909213D01*
X154482918Y-100928211D01*
X154492683Y-100969235D01*
X154503862Y-101045631D01*
X154527676Y-101045631D01*
X154527676Y-100545422D01*
X154503862Y-100545422D01*
X154475225Y-100641959D01*
X154448287Y-100711049D01*
X154399631Y-100802182D01*
X154358902Y-100860695D01*
X154310596Y-100912046D01*
X154254185Y-100956727D01*
X154191555Y-100990622D01*
X154122371Y-101011196D01*
X154044991Y-101018276D01*
X154000623Y-101013867D01*
X153963840Y-101001411D01*
X153933066Y-100981334D01*
X153908487Y-100954407D01*
X153894419Y-100925394D01*
X153889713Y-100893224D01*
X153893625Y-100854429D01*
X153904525Y-100823358D01*
X153921892Y-100798335D01*
X153945498Y-100777832D01*
X153982754Y-100755298D01*
X154038030Y-100730619D01*
X154215655Y-100660155D01*
X154309607Y-100617162D01*
X154414347Y-100558244D01*
X154450255Y-100530526D01*
X154478748Y-100494698D01*
X154500221Y-100449363D01*
X154514172Y-100392379D01*
X154519249Y-100321024D01*
X154512349Y-100255286D01*
X154492074Y-100195678D01*
X154458076Y-100140691D01*
X154408729Y-100089359D01*
X154350781Y-100047467D01*
X154289635Y-100018081D01*
X154224447Y-100000412D01*
X154154106Y-99994410D01*
X154101827Y-99998616D01*
X154050266Y-100011303D01*
X153998829Y-100032878D01*
X153853321Y-100115554D01*
X153828692Y-100111418D01*
X153811608Y-100100000D01*
X153800137Y-100080628D01*
X153790976Y-100043431D01*
X153787559Y-99994410D01*
X153760997Y-99994410D01*
X153760997Y-100365659D01*
X153786154Y-100365659D01*
X153814853Y-100283654D01*
X153844309Y-100225880D01*
X153898811Y-100153595D01*
X153942549Y-100107727D01*
X153983445Y-100073695D01*
X154021910Y-100049670D01*
X154063634Y-100032487D01*
X154111966Y-100021672D01*
X154168150Y-100017857D01*
X154205298Y-100021673D01*
X154240503Y-100033077D01*
X154274457Y-100052479D01*
X154302410Y-100078414D01*
X154318170Y-100106845D01*
X154323428Y-100139002D01*
X154319215Y-100172802D01*
X154306966Y-100201997D01*
X154286364Y-100227723D01*
X154246627Y-100259592D01*
X154201062Y-100284326D01*
X154067400Y-100337388D01*
X153981676Y-100371627D01*
X153890446Y-100412126D01*
X153832841Y-100444965D01*
X153782952Y-100486214D01*
X153740054Y-100536446D01*
X153707753Y-100593402D01*
X153688065Y-100657324D01*
X153681252Y-100729947D01*
G37*
G36*
X153618054Y-101030000D02*
G01*
X153618054Y-101006552D01*
X153580258Y-101005148D01*
X153544932Y-100996963D01*
X153531287Y-100985608D01*
X153525636Y-100965648D01*
X153522922Y-100918564D01*
X153521517Y-100854267D01*
X153521517Y-100520448D01*
X153522922Y-100463173D01*
X153531287Y-100412859D01*
X153543498Y-100400683D01*
X153581662Y-100391915D01*
X153618054Y-100389106D01*
X153618054Y-100365659D01*
X153255659Y-100365659D01*
X153255659Y-100484788D01*
X153242289Y-100456723D01*
X153213710Y-100408646D01*
X153195480Y-100388692D01*
X153167362Y-100372943D01*
X153125977Y-100362047D01*
X153066798Y-100357843D01*
X153023960Y-100363144D01*
X152986408Y-100378638D01*
X152952798Y-100404799D01*
X152926520Y-100438424D01*
X152911120Y-100475143D01*
X152905903Y-100516174D01*
X152910944Y-100557294D01*
X152925544Y-100592567D01*
X152949989Y-100623396D01*
X152981547Y-100647094D01*
X153017260Y-100661260D01*
X153058433Y-100666139D01*
X153092375Y-100661996D01*
X153122597Y-100649822D01*
X153150085Y-100629197D01*
X153171909Y-100602655D01*
X153184402Y-100574822D01*
X153188553Y-100544811D01*
X153185325Y-100510988D01*
X153175914Y-100480636D01*
X153147948Y-100426231D01*
X153155482Y-100418549D01*
X153161931Y-100416461D01*
X153184019Y-100420777D01*
X153204947Y-100434315D01*
X153225617Y-100459692D01*
X153246567Y-100503124D01*
X153252850Y-100540598D01*
X153252850Y-100862876D01*
X153251446Y-100932608D01*
X153248432Y-100968274D01*
X153241676Y-100985669D01*
X153227228Y-100996081D01*
X153192705Y-101003743D01*
X153150757Y-101006552D01*
X153150757Y-101030000D01*
X153618054Y-101030000D01*
G37*
G36*
X151998114Y-101030000D02*
G01*
X152364661Y-101030000D01*
X152364661Y-100942561D01*
X152400924Y-100985481D01*
X152443735Y-101016261D01*
X152476034Y-101029549D01*
X152518339Y-101038427D01*
X152573122Y-101041723D01*
X152635533Y-101035258D01*
X152691968Y-101016293D01*
X152743848Y-100984570D01*
X152776995Y-100953848D01*
X152800231Y-100918511D01*
X152814426Y-100877649D01*
X152819380Y-100829781D01*
X152819380Y-100520204D01*
X152820785Y-100462990D01*
X152824340Y-100428738D01*
X152832691Y-100410722D01*
X152848882Y-100399663D01*
X152883738Y-100391915D01*
X152922878Y-100389106D01*
X152922878Y-100365659D01*
X152550774Y-100365659D01*
X152550774Y-100825690D01*
X152549370Y-100883393D01*
X152543619Y-100936635D01*
X152529098Y-100969916D01*
X152513621Y-100985715D01*
X152493799Y-100995311D01*
X152468220Y-100998736D01*
X152439517Y-100995548D01*
X152418487Y-100986934D01*
X152403190Y-100973457D01*
X152370279Y-100921495D01*
X152370279Y-100542247D01*
X152373087Y-100477583D01*
X152377708Y-100435648D01*
X152388475Y-100414385D01*
X152408668Y-100401448D01*
X152450024Y-100391915D01*
X152493377Y-100389106D01*
X152493377Y-100365659D01*
X152101673Y-100365659D01*
X152101673Y-100875027D01*
X152100268Y-100932363D01*
X152096711Y-100966786D01*
X152088361Y-100984876D01*
X152072128Y-100995951D01*
X152037315Y-101003743D01*
X151998114Y-101006552D01*
X151998114Y-101030000D01*
G37*
G36*
X151936259Y-100740816D02*
G01*
X151918063Y-100740816D01*
X151878777Y-100845949D01*
X151845340Y-100907756D01*
X151806116Y-100955672D01*
X151766266Y-100987745D01*
X151720195Y-101007368D01*
X151662035Y-101014368D01*
X151629101Y-101009523D01*
X151601891Y-100995500D01*
X151583084Y-100973128D01*
X151576673Y-100942988D01*
X151582123Y-100903479D01*
X151596273Y-100878630D01*
X151619370Y-100858326D01*
X151657883Y-100833140D01*
X151755092Y-100778613D01*
X151807589Y-100747736D01*
X151847416Y-100719872D01*
X151880711Y-100688779D01*
X151904813Y-100654781D01*
X151919848Y-100616288D01*
X151925085Y-100570823D01*
X151919910Y-100520690D01*
X151905138Y-100478252D01*
X151881039Y-100441887D01*
X151846744Y-100410600D01*
X151792013Y-100379705D01*
X151728796Y-100360620D01*
X151655075Y-100353935D01*
X151603049Y-100358637D01*
X151554324Y-100372559D01*
X151460596Y-100416461D01*
X151443164Y-100411147D01*
X151427013Y-100393136D01*
X151416656Y-100368270D01*
X151413030Y-100338304D01*
X151393429Y-100338304D01*
X151393429Y-100619672D01*
X151411625Y-100619672D01*
X151439591Y-100545483D01*
X151459555Y-100505526D01*
X151487890Y-100463539D01*
X151521170Y-100426028D01*
X151554324Y-100399792D01*
X151592648Y-100383385D01*
X151643900Y-100377383D01*
X151680333Y-100382405D01*
X151707526Y-100396311D01*
X151726050Y-100417825D01*
X151732011Y-100443267D01*
X151727361Y-100472864D01*
X151714548Y-100493825D01*
X151694482Y-100511437D01*
X151663440Y-100532355D01*
X151571788Y-100584256D01*
X151467557Y-100646416D01*
X151425186Y-100680726D01*
X151390621Y-100722254D01*
X151373629Y-100753630D01*
X151363363Y-100787933D01*
X151359846Y-100825935D01*
X151365310Y-100877799D01*
X151380804Y-100920877D01*
X151405961Y-100957052D01*
X151441728Y-100987440D01*
X151498538Y-101016991D01*
X151563888Y-101035307D01*
X151639687Y-101041723D01*
X151698901Y-101035801D01*
X151757168Y-101017848D01*
X151867688Y-100963565D01*
X151883538Y-100969626D01*
X151899867Y-100992203D01*
X151911026Y-101021690D01*
X151916659Y-101053447D01*
X151936259Y-101053447D01*
X151936259Y-100740816D01*
G37*
G36*
X150958433Y-100471599D02*
G01*
X150937992Y-100436475D01*
X150913352Y-100407778D01*
X150884305Y-100384771D01*
X150851086Y-100368678D01*
X150806836Y-100357939D01*
X150748567Y-100353935D01*
X150685882Y-100359911D01*
X150629438Y-100377353D01*
X150577903Y-100406264D01*
X150544493Y-100435303D01*
X150521773Y-100466919D01*
X150508306Y-100501712D01*
X150503714Y-100540781D01*
X150503714Y-100854572D01*
X150502309Y-100918686D01*
X150499631Y-100964561D01*
X150493944Y-100984937D01*
X150480194Y-100996834D01*
X150444973Y-101005148D01*
X150414199Y-101006552D01*
X150414199Y-101030000D01*
X150846509Y-101030000D01*
X150846509Y-101006552D01*
X150828312Y-101005148D01*
X150795623Y-101000098D01*
X150782151Y-100988478D01*
X150776432Y-100967190D01*
X150773724Y-100918808D01*
X150772320Y-100854694D01*
X150772320Y-100570518D01*
X150773724Y-100513426D01*
X150779461Y-100459877D01*
X150793325Y-100429834D01*
X150817004Y-100411363D01*
X150852065Y-100404738D01*
X150882177Y-100408536D01*
X150904106Y-100418871D01*
X150919965Y-100435390D01*
X150952815Y-100498100D01*
X150952815Y-100854694D01*
X150951411Y-100918808D01*
X150948904Y-100968328D01*
X150943717Y-100989150D01*
X150930710Y-101000192D01*
X150896884Y-101005148D01*
X150878688Y-101006552D01*
X150878688Y-101030000D01*
X151312402Y-101030000D01*
X151312402Y-101006552D01*
X151280223Y-101005148D01*
X151244897Y-100997012D01*
X151231252Y-100985669D01*
X151225560Y-100965705D01*
X151222826Y-100918625D01*
X151221421Y-100854389D01*
X151221421Y-100164708D01*
X151222826Y-100107494D01*
X151226384Y-100073135D01*
X151234733Y-100055104D01*
X151250966Y-100044041D01*
X151285779Y-100036297D01*
X151338963Y-100033489D01*
X151338963Y-100010041D01*
X150952815Y-100010041D01*
X150952815Y-100342212D01*
X150954220Y-100420308D01*
X150958433Y-100471599D01*
G37*
G36*
X150319860Y-100420369D02*
G01*
X150414993Y-100420369D01*
X150414993Y-100381474D01*
X150367859Y-100363882D01*
X150315708Y-100334213D01*
X150265447Y-100297358D01*
X150217034Y-100254467D01*
X150172978Y-100208348D01*
X150138693Y-100165624D01*
X150109856Y-100122645D01*
X150090455Y-100087222D01*
X150051254Y-100087222D01*
X150051254Y-100365659D01*
X149867950Y-100365659D01*
X149887550Y-100420369D01*
X150051254Y-100420369D01*
X150051254Y-100798885D01*
X150048445Y-100869837D01*
X150045045Y-100908918D01*
X150035881Y-100938342D01*
X150021884Y-100960329D01*
X150002444Y-100977418D01*
X149980363Y-100987475D01*
X149954717Y-100990921D01*
X149920971Y-100985688D01*
X149895040Y-100970862D01*
X149874972Y-100945736D01*
X149856171Y-100898330D01*
X149849754Y-100844802D01*
X149830214Y-100844802D01*
X149835453Y-100895361D01*
X149850784Y-100940823D01*
X149876376Y-100982372D01*
X149901448Y-101005357D01*
X149939679Y-101023849D01*
X149995607Y-101036745D01*
X150075006Y-101041723D01*
X150137815Y-101035976D01*
X150194295Y-101019236D01*
X150245732Y-100991592D01*
X150278526Y-100963579D01*
X150301271Y-100931419D01*
X150315062Y-100894312D01*
X150319860Y-100850847D01*
X150319860Y-100420369D01*
G37*
G36*
X149383982Y-101030000D02*
G01*
X149837297Y-101030000D01*
X149837297Y-101006552D01*
X149803714Y-101005148D01*
X149768442Y-100996965D01*
X149754804Y-100985608D01*
X149749112Y-100965644D01*
X149746378Y-100918564D01*
X149744973Y-100854267D01*
X149744973Y-100520448D01*
X149746317Y-100463173D01*
X149754743Y-100412859D01*
X149766954Y-100400683D01*
X149805118Y-100391915D01*
X149842854Y-100389106D01*
X149842854Y-100365659D01*
X149476306Y-100365659D01*
X149476306Y-100854023D01*
X149474902Y-100918381D01*
X149472223Y-100964425D01*
X149466536Y-100984876D01*
X149452786Y-100996785D01*
X149417566Y-101005148D01*
X149383982Y-101006552D01*
X149383982Y-101030000D01*
G37*
G36*
X149747721Y-100130453D02*
G01*
X149743257Y-100095571D01*
X149730144Y-100064775D01*
X149707848Y-100036969D01*
X149679352Y-100015426D01*
X149647754Y-100002672D01*
X149611983Y-99998318D01*
X149575230Y-100002570D01*
X149543199Y-100014925D01*
X149514774Y-100035565D01*
X149492680Y-100062568D01*
X149479473Y-100093758D01*
X149474902Y-100130453D01*
X149479406Y-100166305D01*
X149492559Y-100197566D01*
X149514774Y-100225403D01*
X149543298Y-100246876D01*
X149575323Y-100259665D01*
X149611983Y-100264054D01*
X149647754Y-100259700D01*
X149679352Y-100246946D01*
X149707848Y-100225403D01*
X149730064Y-100197566D01*
X149743217Y-100166305D01*
X149747721Y-100130453D01*
G37*
G36*
X148989347Y-100033489D02*
G01*
X148945261Y-100035626D01*
X148890734Y-100040511D01*
X148863339Y-100048457D01*
X148843839Y-100062798D01*
X148831066Y-100085101D01*
X148822896Y-100125629D01*
X148820087Y-100189865D01*
X148820087Y-100851580D01*
X148822896Y-100915816D01*
X148830926Y-100956256D01*
X148843168Y-100977915D01*
X148862010Y-100991547D01*
X148889330Y-100998859D01*
X148943246Y-101004476D01*
X148985134Y-101006552D01*
X148985134Y-101030000D01*
X148396203Y-101030000D01*
X148287841Y-101026865D01*
X148193424Y-101018021D01*
X148111477Y-101004232D01*
X148052897Y-100987132D01*
X147994984Y-100960417D01*
X147937234Y-100923259D01*
X147879263Y-100874478D01*
X147841994Y-100831524D01*
X147811952Y-100779501D01*
X147789262Y-100716860D01*
X147774655Y-100641611D01*
X147769738Y-100556962D01*
X148147137Y-100556962D01*
X148151117Y-100643284D01*
X148162999Y-100727896D01*
X148182796Y-100811158D01*
X148211247Y-100893834D01*
X148235900Y-100940693D01*
X148256985Y-100963871D01*
X148297225Y-100987309D01*
X148339539Y-100999591D01*
X148384724Y-101004730D01*
X148436748Y-101006552D01*
X148457752Y-101004598D01*
X148475887Y-101002644D01*
X148475887Y-100037397D01*
X148459096Y-100037397D01*
X148388449Y-100040205D01*
X148349992Y-100044898D01*
X148327571Y-100051379D01*
X148287254Y-100074118D01*
X148251186Y-100109641D01*
X148218993Y-100160722D01*
X148191222Y-100231386D01*
X148167358Y-100328054D01*
X148152369Y-100436109D01*
X148147137Y-100556962D01*
X147769738Y-100556962D01*
X147769415Y-100551406D01*
X147774995Y-100458418D01*
X147790798Y-100378192D01*
X147815788Y-100308868D01*
X147849455Y-100248880D01*
X147891842Y-100197009D01*
X147956855Y-100138240D01*
X148022724Y-100093480D01*
X148089904Y-100061297D01*
X148159043Y-100040755D01*
X148256024Y-100023915D01*
X148358694Y-100013572D01*
X148467522Y-100010041D01*
X148989347Y-100010041D01*
X148989347Y-100033489D01*
G37*
%TO.C,J2*%
D11*
X126660000Y-76630000D02*
X126660000Y-94520000D01*
X129420000Y-73980000D02*
X128040000Y-73980000D01*
X129420000Y-75360000D02*
X129420000Y-73980000D01*
X129420000Y-76630000D02*
X126660000Y-76630000D01*
X129420000Y-76630000D02*
X129420000Y-94520000D01*
X129420000Y-94520000D02*
X126660000Y-94520000D01*
%TO.C,J3*%
X151660000Y-76560000D02*
X151660000Y-94450000D01*
X154420000Y-73910000D02*
X153040000Y-73910000D01*
X154420000Y-75290000D02*
X154420000Y-73910000D01*
X154420000Y-76560000D02*
X151660000Y-76560000D01*
X154420000Y-76560000D02*
X154420000Y-94450000D01*
X154420000Y-94450000D02*
X151660000Y-94450000D01*
%TD*%
M02*
