%TF.GenerationSoftware,KiCad,Pcbnew,10.0.3*%
%TF.CreationDate,2026-08-11T23:10:56+05:30*%
%TF.ProjectId,esp32-c3-mini,65737033-322d-4633-932d-6d696e692e6b,rev?*%
%TF.SameCoordinates,Original*%
%TF.FileFunction,Copper,L3,Inr*%
%TF.FilePolarity,Positive*%
%FSLAX46Y46*%
G04 Gerber Fmt 4.6, Leading zero omitted, Abs format (unit mm)*
G04 Created by KiCad (PCBNEW 10.0.3) date 2026-08-11 23:10:56*
%MOMM*%
%LPD*%
G01*
G04 APERTURE LIST*
%TA.AperFunction,ComponentPad*%
%ADD10O,1.000000X2.100000*%
%TD*%
%TA.AperFunction,ComponentPad*%
%ADD11O,1.000000X1.800000*%
%TD*%
%TA.AperFunction,HeatsinkPad*%
%ADD12C,0.600000*%
%TD*%
%TA.AperFunction,ComponentPad*%
%ADD13R,1.700000X1.700000*%
%TD*%
%TA.AperFunction,ComponentPad*%
%ADD14C,1.700000*%
%TD*%
%TA.AperFunction,ViaPad*%
%ADD15C,0.500000*%
%TD*%
%TA.AperFunction,ViaPad*%
%ADD16C,0.600000*%
%TD*%
%TA.AperFunction,Conductor*%
%ADD17C,0.200000*%
%TD*%
G04 APERTURE END LIST*
D10*
%TO.N,GND*%
%TO.C,J1*%
X137170000Y-95115000D03*
D11*
X137170000Y-99315000D03*
D10*
X145810000Y-95115000D03*
D11*
X145810000Y-99315000D03*
%TD*%
D12*
%TO.N,GND*%
%TO.C,U3*%
X140000000Y-73550000D03*
X140000000Y-74650000D03*
X140550000Y-73000000D03*
X140550000Y-74100000D03*
X140550000Y-75200000D03*
X141100000Y-73550000D03*
X141100000Y-74650000D03*
X141650000Y-73000000D03*
X141650000Y-74100000D03*
X141650000Y-75200000D03*
X142200000Y-73550000D03*
X142200000Y-74650000D03*
%TD*%
D13*
%TO.N,+3V3*%
%TO.C,J2*%
X128040000Y-75360000D03*
D14*
%TO.N,GND*%
X128040000Y-77900000D03*
%TO.N,EN*%
X128040000Y-80440000D03*
%TO.N,IO4*%
X128040000Y-82980000D03*
%TO.N,IO5*%
X128040000Y-85520000D03*
%TO.N,IO6*%
X128040000Y-88060000D03*
%TO.N,IO7*%
X128040000Y-90600000D03*
%TO.N,IO9*%
X128040000Y-93140000D03*
%TD*%
D13*
%TO.N,+5V*%
%TO.C,J3*%
X153040000Y-75290000D03*
D14*
%TO.N,GND*%
X153040000Y-77830000D03*
%TO.N,IO3*%
X153040000Y-80370000D03*
%TO.N,GND*%
X153040000Y-82910000D03*
%TO.N,RXD*%
X153040000Y-85450000D03*
%TO.N,TXD*%
X153040000Y-87990000D03*
%TO.N,GND*%
X153040000Y-90530000D03*
%TO.N,IO10*%
X153040000Y-93070000D03*
%TD*%
D15*
%TO.N,GND*%
X139780000Y-92010000D03*
X128290000Y-70170000D03*
X128363764Y-68350000D03*
X151910000Y-67690000D03*
X154920000Y-100610000D03*
X127990000Y-98420000D03*
X148850000Y-88100000D03*
X128770000Y-67950000D03*
%TO.N,+5V*%
X142900000Y-85050000D03*
%TO.N,+3V3*%
X132040000Y-84060000D03*
%TO.N,+5V*%
X134110000Y-84130000D03*
D16*
%TO.N,VBUS*%
X145410000Y-92810000D03*
X142170000Y-90100000D03*
%TO.N,+5V*%
X135740000Y-82160000D03*
X141390000Y-85430000D03*
X140350000Y-85740000D03*
X138880000Y-85040000D03*
%TO.N,+3V3*%
X145710000Y-84100000D03*
X136010000Y-86590000D03*
X150180000Y-94260000D03*
X139100000Y-84040000D03*
%TO.N,EN*%
X134760000Y-91750000D03*
%TO.N,IO9*%
X131540000Y-87190000D03*
X131420000Y-78910000D03*
X148640000Y-94550000D03*
%TO.N,IO7*%
X130820000Y-75949998D03*
X130820000Y-84420000D03*
%TO.N,IO6*%
X130620000Y-74450399D03*
%TO.N,RXD*%
X151440000Y-85290000D03*
X150140002Y-79500000D03*
%TO.N,IO10*%
X151290000Y-90110000D03*
X150114858Y-80565000D03*
%TO.N,IO3*%
X150980000Y-72380000D03*
%TO.N,TXD*%
X154760000Y-85720000D03*
X150165000Y-78020000D03*
%TO.N,IO2*%
X146019650Y-82291969D03*
X149180000Y-71449998D03*
%TO.N,IO8*%
X131420000Y-77449998D03*
X140380000Y-82230000D03*
%TD*%
%TO.N,IO9*%
D17*
X131420000Y-78949998D02*
X131540000Y-79069998D01*
X131540000Y-79069998D02*
X131540000Y-87190000D01*
X131420000Y-78910000D02*
X131420000Y-78949998D01*
%TO.N,IO3*%
X150980000Y-72380000D02*
X150980000Y-78310000D01*
X150980000Y-78310000D02*
X153040000Y-80370000D01*
%TO.N,IO2*%
X149220000Y-82240000D02*
X149180000Y-82200000D01*
X149180000Y-82200000D02*
X149180000Y-71449998D01*
X146019650Y-82291969D02*
X149168031Y-82291969D01*
X149168031Y-82291969D02*
X149220000Y-82240000D01*
%TO.N,IO8*%
X139650000Y-81500000D02*
X132110000Y-81500000D01*
X132110000Y-78139998D02*
X131420000Y-77449998D01*
X132110000Y-81500000D02*
X132110000Y-78139998D01*
X140380000Y-82230000D02*
X139650000Y-81500000D01*
%TD*%
%TA.AperFunction,Conductor*%
%TO.N,GND*%
G36*
X155715452Y-67082697D02*
G01*
X155764618Y-67132341D01*
X155779500Y-67191241D01*
X155779500Y-89626129D01*
X155779498Y-89626846D01*
X155710716Y-101526097D01*
X155690644Y-101593021D01*
X155637577Y-101638470D01*
X155586096Y-101649378D01*
X125923878Y-101500670D01*
X125856938Y-101480650D01*
X125811449Y-101427617D01*
X125800500Y-101376672D01*
X125800500Y-99871887D01*
X125800503Y-99871088D01*
X125800558Y-99862403D01*
X125828304Y-95559234D01*
X138024500Y-95559234D01*
X138024500Y-95710765D01*
X138063719Y-95857136D01*
X138101602Y-95922750D01*
X138139485Y-95988365D01*
X138246635Y-96095515D01*
X138377865Y-96171281D01*
X138524234Y-96210500D01*
X138524236Y-96210500D01*
X138675764Y-96210500D01*
X138675766Y-96210500D01*
X138822135Y-96171281D01*
X138953365Y-96095515D01*
X139060515Y-95988365D01*
X139136281Y-95857135D01*
X139175500Y-95710766D01*
X139175500Y-95559234D01*
X143804500Y-95559234D01*
X143804500Y-95710765D01*
X143843719Y-95857136D01*
X143881602Y-95922750D01*
X143919485Y-95988365D01*
X144026635Y-96095515D01*
X144157865Y-96171281D01*
X144304234Y-96210500D01*
X144304236Y-96210500D01*
X144455764Y-96210500D01*
X144455766Y-96210500D01*
X144602135Y-96171281D01*
X144733365Y-96095515D01*
X144840515Y-95988365D01*
X144916281Y-95857135D01*
X144955500Y-95710766D01*
X144955500Y-95559234D01*
X144916281Y-95412865D01*
X144840515Y-95281635D01*
X144733365Y-95174485D01*
X144667750Y-95136602D01*
X144602136Y-95098719D01*
X144528950Y-95079109D01*
X144455766Y-95059500D01*
X144304234Y-95059500D01*
X144157863Y-95098719D01*
X144026635Y-95174485D01*
X144026632Y-95174487D01*
X143919487Y-95281632D01*
X143919485Y-95281635D01*
X143843719Y-95412863D01*
X143804500Y-95559234D01*
X139175500Y-95559234D01*
X139136281Y-95412865D01*
X139060515Y-95281635D01*
X138953365Y-95174485D01*
X138887750Y-95136602D01*
X138822136Y-95098719D01*
X138748950Y-95079109D01*
X138675766Y-95059500D01*
X138524234Y-95059500D01*
X138377863Y-95098719D01*
X138246635Y-95174485D01*
X138246632Y-95174487D01*
X138139487Y-95281632D01*
X138139485Y-95281635D01*
X138063719Y-95412863D01*
X138024500Y-95559234D01*
X125828304Y-95559234D01*
X125835236Y-94484108D01*
X148139500Y-94484108D01*
X148139500Y-94615891D01*
X148173608Y-94743187D01*
X148183604Y-94760500D01*
X148239500Y-94857314D01*
X148332686Y-94950500D01*
X148446814Y-95016392D01*
X148574108Y-95050500D01*
X148574110Y-95050500D01*
X148705890Y-95050500D01*
X148705892Y-95050500D01*
X148833186Y-95016392D01*
X148947314Y-94950500D01*
X149040500Y-94857314D01*
X149106392Y-94743186D01*
X149140500Y-94615892D01*
X149140500Y-94484108D01*
X149106392Y-94356814D01*
X149040500Y-94242686D01*
X148991922Y-94194108D01*
X149679500Y-94194108D01*
X149679500Y-94325892D01*
X149696554Y-94389539D01*
X149713608Y-94453187D01*
X149731461Y-94484108D01*
X149779500Y-94567314D01*
X149872686Y-94660500D01*
X149986814Y-94726392D01*
X150114108Y-94760500D01*
X150114110Y-94760500D01*
X150245890Y-94760500D01*
X150245892Y-94760500D01*
X150373186Y-94726392D01*
X150487314Y-94660500D01*
X150580500Y-94567314D01*
X150646392Y-94453186D01*
X150680500Y-94325892D01*
X150680500Y-94194108D01*
X150646392Y-94066814D01*
X150580500Y-93952686D01*
X150487314Y-93859500D01*
X150400984Y-93809657D01*
X150373187Y-93793608D01*
X150309539Y-93776554D01*
X150245892Y-93759500D01*
X150114108Y-93759500D01*
X149986812Y-93793608D01*
X149872686Y-93859500D01*
X149872683Y-93859502D01*
X149779502Y-93952683D01*
X149779500Y-93952686D01*
X149713608Y-94066812D01*
X149691452Y-94149502D01*
X149679500Y-94194108D01*
X148991922Y-94194108D01*
X148947314Y-94149500D01*
X148890250Y-94116554D01*
X148833187Y-94083608D01*
X148769539Y-94066554D01*
X148705892Y-94049500D01*
X148574108Y-94049500D01*
X148446812Y-94083608D01*
X148332686Y-94149500D01*
X148332683Y-94149502D01*
X148239502Y-94242683D01*
X148239500Y-94242686D01*
X148173608Y-94356812D01*
X148139500Y-94484108D01*
X125835236Y-94484108D01*
X125844570Y-93036530D01*
X126989500Y-93036530D01*
X126989500Y-93243469D01*
X127029868Y-93446412D01*
X127029870Y-93446420D01*
X127109058Y-93637596D01*
X127224024Y-93809657D01*
X127370342Y-93955975D01*
X127370345Y-93955977D01*
X127542402Y-94070941D01*
X127733580Y-94150130D01*
X127936530Y-94190499D01*
X127936534Y-94190500D01*
X127936535Y-94190500D01*
X128143466Y-94190500D01*
X128143467Y-94190499D01*
X128346420Y-94150130D01*
X128537598Y-94070941D01*
X128709655Y-93955977D01*
X128855977Y-93809655D01*
X128970941Y-93637598D01*
X129050130Y-93446420D01*
X129090500Y-93243465D01*
X129090500Y-93036535D01*
X129050130Y-92833580D01*
X129050128Y-92833575D01*
X129029359Y-92783433D01*
X129013070Y-92744108D01*
X144909500Y-92744108D01*
X144909500Y-92875891D01*
X144943608Y-93003187D01*
X144962862Y-93036535D01*
X145009500Y-93117314D01*
X145102686Y-93210500D01*
X145216814Y-93276392D01*
X145344108Y-93310500D01*
X145344110Y-93310500D01*
X145475890Y-93310500D01*
X145475892Y-93310500D01*
X145603186Y-93276392D01*
X145717314Y-93210500D01*
X145810500Y-93117314D01*
X145876392Y-93003186D01*
X145886214Y-92966530D01*
X151989500Y-92966530D01*
X151989500Y-93173469D01*
X152029868Y-93376412D01*
X152029870Y-93376420D01*
X152109058Y-93567596D01*
X152224024Y-93739657D01*
X152370342Y-93885975D01*
X152370345Y-93885977D01*
X152542402Y-94000941D01*
X152733580Y-94080130D01*
X152936530Y-94120499D01*
X152936534Y-94120500D01*
X152936535Y-94120500D01*
X153143466Y-94120500D01*
X153143467Y-94120499D01*
X153346420Y-94080130D01*
X153537598Y-94000941D01*
X153709655Y-93885977D01*
X153855977Y-93739655D01*
X153970941Y-93567598D01*
X154050130Y-93376420D01*
X154090500Y-93173465D01*
X154090500Y-92966535D01*
X154050130Y-92763580D01*
X153970941Y-92572402D01*
X153855977Y-92400345D01*
X153855975Y-92400342D01*
X153709657Y-92254024D01*
X153623626Y-92196541D01*
X153537598Y-92139059D01*
X153346420Y-92059870D01*
X153346412Y-92059868D01*
X153143469Y-92019500D01*
X153143465Y-92019500D01*
X152936535Y-92019500D01*
X152936530Y-92019500D01*
X152733587Y-92059868D01*
X152733579Y-92059870D01*
X152542403Y-92139058D01*
X152370342Y-92254024D01*
X152224024Y-92400342D01*
X152109058Y-92572403D01*
X152029870Y-92763579D01*
X152029868Y-92763587D01*
X151989500Y-92966530D01*
X145886214Y-92966530D01*
X145910500Y-92875892D01*
X145910500Y-92744108D01*
X145876392Y-92616814D01*
X145810500Y-92502686D01*
X145717314Y-92409500D01*
X145660250Y-92376554D01*
X145603187Y-92343608D01*
X145530093Y-92324023D01*
X145475892Y-92309500D01*
X145344108Y-92309500D01*
X145216812Y-92343608D01*
X145102686Y-92409500D01*
X145102683Y-92409502D01*
X145009502Y-92502683D01*
X145009500Y-92502686D01*
X144943608Y-92616812D01*
X144909500Y-92744108D01*
X129013070Y-92744108D01*
X128970942Y-92642403D01*
X128855975Y-92470342D01*
X128709657Y-92324024D01*
X128599618Y-92250499D01*
X128537598Y-92209059D01*
X128346420Y-92129870D01*
X128346412Y-92129868D01*
X128143469Y-92089500D01*
X128143465Y-92089500D01*
X127936535Y-92089500D01*
X127936530Y-92089500D01*
X127733587Y-92129868D01*
X127733579Y-92129870D01*
X127542403Y-92209058D01*
X127370342Y-92324024D01*
X127224024Y-92470342D01*
X127109058Y-92642403D01*
X127029870Y-92833579D01*
X127029868Y-92833587D01*
X126989500Y-93036530D01*
X125844570Y-93036530D01*
X125853290Y-91684108D01*
X134259500Y-91684108D01*
X134259500Y-91815891D01*
X134293608Y-91943187D01*
X134326554Y-92000250D01*
X134359500Y-92057314D01*
X134452686Y-92150500D01*
X134566814Y-92216392D01*
X134694108Y-92250500D01*
X134694110Y-92250500D01*
X134825890Y-92250500D01*
X134825892Y-92250500D01*
X134953186Y-92216392D01*
X135067314Y-92150500D01*
X135160500Y-92057314D01*
X135226392Y-91943186D01*
X135260500Y-91815892D01*
X135260500Y-91684108D01*
X135226392Y-91556814D01*
X135160500Y-91442686D01*
X135067314Y-91349500D01*
X135010250Y-91316554D01*
X134953187Y-91283608D01*
X134889539Y-91266554D01*
X134825892Y-91249500D01*
X134694108Y-91249500D01*
X134566812Y-91283608D01*
X134452686Y-91349500D01*
X134452683Y-91349502D01*
X134359502Y-91442683D01*
X134359500Y-91442686D01*
X134293608Y-91556812D01*
X134259500Y-91684108D01*
X125853290Y-91684108D01*
X125860948Y-90496530D01*
X126989500Y-90496530D01*
X126989500Y-90703469D01*
X127029868Y-90906412D01*
X127029870Y-90906420D01*
X127109058Y-91097596D01*
X127224024Y-91269657D01*
X127370342Y-91415975D01*
X127370345Y-91415977D01*
X127542402Y-91530941D01*
X127733580Y-91610130D01*
X127936530Y-91650499D01*
X127936534Y-91650500D01*
X127936535Y-91650500D01*
X128143466Y-91650500D01*
X128143467Y-91650499D01*
X128346420Y-91610130D01*
X128464016Y-91561420D01*
X128537596Y-91530942D01*
X128537596Y-91530941D01*
X128537598Y-91530941D01*
X128709655Y-91415977D01*
X128855977Y-91269655D01*
X128970941Y-91097598D01*
X129050130Y-90906420D01*
X129090500Y-90703465D01*
X129090500Y-90496535D01*
X129050130Y-90293580D01*
X128970941Y-90102402D01*
X128931990Y-90044108D01*
X128925308Y-90034108D01*
X141669500Y-90034108D01*
X141669500Y-90165892D01*
X141686554Y-90229539D01*
X141703608Y-90293187D01*
X141709382Y-90303187D01*
X141769500Y-90407314D01*
X141862686Y-90500500D01*
X141976814Y-90566392D01*
X142104108Y-90600500D01*
X142104110Y-90600500D01*
X142235890Y-90600500D01*
X142235892Y-90600500D01*
X142363186Y-90566392D01*
X142477314Y-90500500D01*
X142570500Y-90407314D01*
X142636392Y-90293186D01*
X142670500Y-90165892D01*
X142670500Y-90044108D01*
X150789500Y-90044108D01*
X150789500Y-90175891D01*
X150823608Y-90303187D01*
X150856554Y-90360250D01*
X150889500Y-90417314D01*
X150982686Y-90510500D01*
X151096814Y-90576392D01*
X151224108Y-90610500D01*
X151224110Y-90610500D01*
X151355890Y-90610500D01*
X151355892Y-90610500D01*
X151483186Y-90576392D01*
X151597314Y-90510500D01*
X151690500Y-90417314D01*
X151756392Y-90303186D01*
X151790500Y-90175892D01*
X151790500Y-90044108D01*
X151756392Y-89916814D01*
X151750618Y-89906814D01*
X151747563Y-89901521D01*
X151690500Y-89802686D01*
X151597314Y-89709500D01*
X151540250Y-89676554D01*
X151483187Y-89643608D01*
X151417953Y-89626129D01*
X151355892Y-89609500D01*
X151224108Y-89609500D01*
X151096812Y-89643608D01*
X150982686Y-89709500D01*
X150982683Y-89709502D01*
X150889502Y-89802683D01*
X150889500Y-89802686D01*
X150823608Y-89916812D01*
X150789500Y-90044108D01*
X142670500Y-90044108D01*
X142670500Y-90034108D01*
X142636392Y-89906814D01*
X142570500Y-89792686D01*
X142477314Y-89699500D01*
X142420250Y-89666554D01*
X142363187Y-89633608D01*
X142299539Y-89616554D01*
X142235892Y-89599500D01*
X142104108Y-89599500D01*
X141976812Y-89633608D01*
X141862686Y-89699500D01*
X141862683Y-89699502D01*
X141769502Y-89792683D01*
X141769500Y-89792686D01*
X141703608Y-89906812D01*
X141669500Y-90034108D01*
X128925308Y-90034108D01*
X128855980Y-89930349D01*
X128855974Y-89930341D01*
X128709657Y-89784024D01*
X128583156Y-89699500D01*
X128537598Y-89669059D01*
X128476154Y-89643608D01*
X128346420Y-89589870D01*
X128346412Y-89589868D01*
X128143469Y-89549500D01*
X128143465Y-89549500D01*
X127936535Y-89549500D01*
X127936530Y-89549500D01*
X127733587Y-89589868D01*
X127733579Y-89589870D01*
X127542403Y-89669058D01*
X127370342Y-89784024D01*
X127224024Y-89930342D01*
X127109058Y-90102403D01*
X127029870Y-90293579D01*
X127029868Y-90293587D01*
X126989500Y-90496530D01*
X125860948Y-90496530D01*
X125877325Y-87956530D01*
X126989500Y-87956530D01*
X126989500Y-88163469D01*
X127029868Y-88366412D01*
X127029870Y-88366420D01*
X127109058Y-88557596D01*
X127224024Y-88729657D01*
X127370342Y-88875975D01*
X127370345Y-88875977D01*
X127542402Y-88990941D01*
X127733580Y-89070130D01*
X127936530Y-89110499D01*
X127936534Y-89110500D01*
X127936535Y-89110500D01*
X128143466Y-89110500D01*
X128143467Y-89110499D01*
X128346420Y-89070130D01*
X128537598Y-88990941D01*
X128709655Y-88875977D01*
X128855977Y-88729655D01*
X128970941Y-88557598D01*
X129050130Y-88366420D01*
X129090500Y-88163465D01*
X129090500Y-87956535D01*
X129090417Y-87956120D01*
X129080177Y-87904634D01*
X129076576Y-87886530D01*
X151989500Y-87886530D01*
X151989500Y-88093469D01*
X152029868Y-88296412D01*
X152029870Y-88296420D01*
X152109058Y-88487596D01*
X152224024Y-88659657D01*
X152370342Y-88805975D01*
X152370345Y-88805977D01*
X152542402Y-88920941D01*
X152733580Y-89000130D01*
X152936530Y-89040499D01*
X152936534Y-89040500D01*
X152936535Y-89040500D01*
X153143466Y-89040500D01*
X153143467Y-89040499D01*
X153346420Y-89000130D01*
X153537598Y-88920941D01*
X153709655Y-88805977D01*
X153855977Y-88659655D01*
X153970941Y-88487598D01*
X154050130Y-88296420D01*
X154090500Y-88093465D01*
X154090500Y-87886535D01*
X154050130Y-87683580D01*
X153970941Y-87492402D01*
X153855977Y-87320345D01*
X153855975Y-87320342D01*
X153709657Y-87174024D01*
X153584653Y-87090500D01*
X153537598Y-87059059D01*
X153531159Y-87056392D01*
X153346420Y-86979870D01*
X153346412Y-86979868D01*
X153143469Y-86939500D01*
X153143465Y-86939500D01*
X152936535Y-86939500D01*
X152936530Y-86939500D01*
X152733587Y-86979868D01*
X152733579Y-86979870D01*
X152542403Y-87059058D01*
X152370342Y-87174024D01*
X152224024Y-87320342D01*
X152109058Y-87492403D01*
X152029870Y-87683579D01*
X152029868Y-87683587D01*
X151989500Y-87886530D01*
X129076576Y-87886530D01*
X129050131Y-87753587D01*
X129050130Y-87753580D01*
X128970941Y-87562402D01*
X128855977Y-87390345D01*
X128855975Y-87390342D01*
X128709657Y-87244024D01*
X128604892Y-87174023D01*
X128537598Y-87129059D01*
X128525650Y-87124110D01*
X128346420Y-87049870D01*
X128346412Y-87049868D01*
X128143469Y-87009500D01*
X128143465Y-87009500D01*
X127936535Y-87009500D01*
X127936530Y-87009500D01*
X127733587Y-87049868D01*
X127733579Y-87049870D01*
X127542403Y-87129058D01*
X127370342Y-87244024D01*
X127224024Y-87390342D01*
X127109058Y-87562403D01*
X127029870Y-87753579D01*
X127029868Y-87753587D01*
X126989500Y-87956530D01*
X125877325Y-87956530D01*
X125893703Y-85416530D01*
X126989500Y-85416530D01*
X126989500Y-85623469D01*
X127029868Y-85826412D01*
X127029870Y-85826420D01*
X127058853Y-85896392D01*
X127109059Y-86017598D01*
X127128916Y-86047316D01*
X127224024Y-86189657D01*
X127370342Y-86335975D01*
X127370345Y-86335977D01*
X127542402Y-86450941D01*
X127733580Y-86530130D01*
X127936530Y-86570499D01*
X127936534Y-86570500D01*
X127936535Y-86570500D01*
X128143466Y-86570500D01*
X128143467Y-86570499D01*
X128346420Y-86530130D01*
X128537598Y-86450941D01*
X128709655Y-86335977D01*
X128855977Y-86189655D01*
X128970941Y-86017598D01*
X129050130Y-85826420D01*
X129090500Y-85623465D01*
X129090500Y-85416535D01*
X129050130Y-85213580D01*
X128970941Y-85022402D01*
X128855977Y-84850345D01*
X128855975Y-84850342D01*
X128709657Y-84704024D01*
X128573707Y-84613186D01*
X128537598Y-84589059D01*
X128500296Y-84573608D01*
X128346420Y-84509870D01*
X128346412Y-84509868D01*
X128143469Y-84469500D01*
X128143465Y-84469500D01*
X127936535Y-84469500D01*
X127936530Y-84469500D01*
X127733587Y-84509868D01*
X127733579Y-84509870D01*
X127542403Y-84589058D01*
X127370342Y-84704024D01*
X127224024Y-84850342D01*
X127109058Y-85022403D01*
X127029870Y-85213579D01*
X127029868Y-85213587D01*
X126989500Y-85416530D01*
X125893703Y-85416530D01*
X125900553Y-84354108D01*
X130319500Y-84354108D01*
X130319500Y-84485892D01*
X130323414Y-84500499D01*
X130353608Y-84613187D01*
X130372719Y-84646288D01*
X130419500Y-84727314D01*
X130512686Y-84820500D01*
X130626814Y-84886392D01*
X130754108Y-84920500D01*
X130754110Y-84920500D01*
X130885890Y-84920500D01*
X130885892Y-84920500D01*
X131013186Y-84886392D01*
X131053499Y-84863116D01*
X131121400Y-84846644D01*
X131187427Y-84869496D01*
X131230617Y-84924417D01*
X131239500Y-84970504D01*
X131239500Y-86731323D01*
X131219815Y-86798362D01*
X131203182Y-86819004D01*
X131139500Y-86882686D01*
X131073608Y-86996812D01*
X131039500Y-87124108D01*
X131039500Y-87255891D01*
X131073608Y-87383187D01*
X131077741Y-87390345D01*
X131139500Y-87497314D01*
X131232686Y-87590500D01*
X131346814Y-87656392D01*
X131474108Y-87690500D01*
X131474110Y-87690500D01*
X131605890Y-87690500D01*
X131605892Y-87690500D01*
X131733186Y-87656392D01*
X131847314Y-87590500D01*
X131940500Y-87497314D01*
X132006392Y-87383186D01*
X132040500Y-87255892D01*
X132040500Y-87124108D01*
X132006392Y-86996814D01*
X131940500Y-86882686D01*
X131876818Y-86819004D01*
X131862113Y-86792073D01*
X131845523Y-86766258D01*
X131844631Y-86760055D01*
X131843334Y-86757680D01*
X131840500Y-86731323D01*
X131840500Y-86524108D01*
X135509500Y-86524108D01*
X135509500Y-86655891D01*
X135543608Y-86783187D01*
X135576554Y-86840250D01*
X135609500Y-86897314D01*
X135702686Y-86990500D01*
X135816814Y-87056392D01*
X135944108Y-87090500D01*
X135944110Y-87090500D01*
X136075890Y-87090500D01*
X136075892Y-87090500D01*
X136203186Y-87056392D01*
X136317314Y-86990500D01*
X136410500Y-86897314D01*
X136476392Y-86783186D01*
X136510500Y-86655892D01*
X136510500Y-86524108D01*
X136476392Y-86396814D01*
X136410500Y-86282686D01*
X136317314Y-86189500D01*
X136232439Y-86140497D01*
X136203187Y-86123608D01*
X136139539Y-86106554D01*
X136075892Y-86089500D01*
X135944108Y-86089500D01*
X135816812Y-86123608D01*
X135702686Y-86189500D01*
X135702683Y-86189502D01*
X135609502Y-86282683D01*
X135609500Y-86282686D01*
X135543608Y-86396812D01*
X135509500Y-86524108D01*
X131840500Y-86524108D01*
X131840500Y-85674108D01*
X139849500Y-85674108D01*
X139849500Y-85805892D01*
X139856094Y-85830500D01*
X139883608Y-85933187D01*
X139916554Y-85990250D01*
X139949500Y-86047314D01*
X140042686Y-86140500D01*
X140156814Y-86206392D01*
X140284108Y-86240500D01*
X140284110Y-86240500D01*
X140415890Y-86240500D01*
X140415892Y-86240500D01*
X140543186Y-86206392D01*
X140657314Y-86140500D01*
X140750500Y-86047314D01*
X140816392Y-85933186D01*
X140838779Y-85849633D01*
X140875142Y-85789976D01*
X140937989Y-85759446D01*
X141007365Y-85767740D01*
X141046234Y-85794048D01*
X141082686Y-85830500D01*
X141196814Y-85896392D01*
X141324108Y-85930500D01*
X141324110Y-85930500D01*
X141455890Y-85930500D01*
X141455892Y-85930500D01*
X141583186Y-85896392D01*
X141697314Y-85830500D01*
X141790500Y-85737314D01*
X141856392Y-85623186D01*
X141890500Y-85495892D01*
X141890500Y-85364108D01*
X141856392Y-85236814D01*
X141790500Y-85122686D01*
X141697314Y-85029500D01*
X141640250Y-84996554D01*
X141630095Y-84990691D01*
X142449500Y-84990691D01*
X142449500Y-85109309D01*
X142480201Y-85223886D01*
X142539511Y-85326613D01*
X142623387Y-85410489D01*
X142726114Y-85469799D01*
X142840691Y-85500500D01*
X142840694Y-85500500D01*
X142959306Y-85500500D01*
X142959309Y-85500500D01*
X143073886Y-85469799D01*
X143176613Y-85410489D01*
X143260489Y-85326613D01*
X143319671Y-85224108D01*
X150939500Y-85224108D01*
X150939500Y-85355892D01*
X150941702Y-85364110D01*
X150973608Y-85483187D01*
X150998797Y-85526814D01*
X151039500Y-85597314D01*
X151132686Y-85690500D01*
X151246814Y-85756392D01*
X151374108Y-85790500D01*
X151374110Y-85790500D01*
X151505890Y-85790500D01*
X151505892Y-85790500D01*
X151633186Y-85756392D01*
X151747314Y-85690500D01*
X151808017Y-85629796D01*
X151869336Y-85596314D01*
X151939028Y-85601298D01*
X151994962Y-85643169D01*
X152017312Y-85693289D01*
X152029868Y-85756412D01*
X152029870Y-85756420D01*
X152068481Y-85849636D01*
X152109059Y-85947598D01*
X152166541Y-86033626D01*
X152224024Y-86119657D01*
X152370342Y-86265975D01*
X152370345Y-86265977D01*
X152542402Y-86380941D01*
X152733580Y-86460130D01*
X152936530Y-86500499D01*
X152936534Y-86500500D01*
X152936535Y-86500500D01*
X153143466Y-86500500D01*
X153143467Y-86500499D01*
X153346420Y-86460130D01*
X153537598Y-86380941D01*
X153709655Y-86265977D01*
X153855977Y-86119655D01*
X153970941Y-85947598D01*
X153976911Y-85933187D01*
X154026313Y-85813919D01*
X154032675Y-85798559D01*
X154076515Y-85744157D01*
X154142809Y-85722092D01*
X154210508Y-85739371D01*
X154258119Y-85790508D01*
X154267009Y-85813916D01*
X154293608Y-85913186D01*
X154359500Y-86027314D01*
X154452686Y-86120500D01*
X154566814Y-86186392D01*
X154694108Y-86220500D01*
X154694110Y-86220500D01*
X154825890Y-86220500D01*
X154825892Y-86220500D01*
X154953186Y-86186392D01*
X155067314Y-86120500D01*
X155160500Y-86027314D01*
X155226392Y-85913186D01*
X155260500Y-85785892D01*
X155260500Y-85654108D01*
X155226392Y-85526814D01*
X155160500Y-85412686D01*
X155067314Y-85319500D01*
X154987827Y-85273608D01*
X154953187Y-85253608D01*
X154843089Y-85224108D01*
X154825892Y-85219500D01*
X154694108Y-85219500D01*
X154566812Y-85253608D01*
X154452686Y-85319500D01*
X154452683Y-85319502D01*
X154359502Y-85412683D01*
X154359500Y-85412686D01*
X154321887Y-85477833D01*
X154271319Y-85526048D01*
X154202712Y-85539270D01*
X154137847Y-85513302D01*
X154097319Y-85456387D01*
X154090500Y-85415832D01*
X154090500Y-85346534D01*
X154090499Y-85346530D01*
X154072016Y-85253608D01*
X154050130Y-85143580D01*
X153970941Y-84952402D01*
X153855977Y-84780345D01*
X153855975Y-84780342D01*
X153709657Y-84634024D01*
X153613155Y-84569544D01*
X153537598Y-84519059D01*
X153507017Y-84506392D01*
X153346420Y-84439870D01*
X153346412Y-84439868D01*
X153143469Y-84399500D01*
X153143465Y-84399500D01*
X152936535Y-84399500D01*
X152936530Y-84399500D01*
X152733587Y-84439868D01*
X152733579Y-84439870D01*
X152542403Y-84519058D01*
X152370342Y-84634024D01*
X152224024Y-84780342D01*
X152109057Y-84952404D01*
X152085792Y-85008572D01*
X152041950Y-85062976D01*
X151975656Y-85085040D01*
X151907957Y-85067760D01*
X151863844Y-85023119D01*
X151855445Y-85008572D01*
X151840500Y-84982686D01*
X151747314Y-84889500D01*
X151673380Y-84846814D01*
X151633187Y-84823608D01*
X151569539Y-84806554D01*
X151505892Y-84789500D01*
X151374108Y-84789500D01*
X151246812Y-84823608D01*
X151132686Y-84889500D01*
X151132683Y-84889502D01*
X151039502Y-84982683D01*
X151039500Y-84982686D01*
X150973608Y-85096812D01*
X150961077Y-85143579D01*
X150939500Y-85224108D01*
X143319671Y-85224108D01*
X143319799Y-85223886D01*
X143350500Y-85109309D01*
X143350500Y-84990691D01*
X143319799Y-84876114D01*
X143260489Y-84773387D01*
X143176613Y-84689511D01*
X143073886Y-84630201D01*
X142959309Y-84599500D01*
X142840691Y-84599500D01*
X142726114Y-84630201D01*
X142726112Y-84630201D01*
X142726112Y-84630202D01*
X142623387Y-84689511D01*
X142623384Y-84689513D01*
X142539513Y-84773384D01*
X142539511Y-84773387D01*
X142495081Y-84850342D01*
X142480201Y-84876114D01*
X142449500Y-84990691D01*
X141630095Y-84990691D01*
X141583187Y-84963608D01*
X141519539Y-84946554D01*
X141455892Y-84929500D01*
X141324108Y-84929500D01*
X141196812Y-84963608D01*
X141082686Y-85029500D01*
X141082683Y-85029502D01*
X140989502Y-85122683D01*
X140989500Y-85122686D01*
X140925703Y-85233186D01*
X140923608Y-85236814D01*
X140919108Y-85253608D01*
X140901221Y-85320364D01*
X140864855Y-85380024D01*
X140802008Y-85410553D01*
X140732633Y-85402258D01*
X140693765Y-85375951D01*
X140657316Y-85339502D01*
X140657314Y-85339500D01*
X140600250Y-85306554D01*
X140543187Y-85273608D01*
X140468544Y-85253608D01*
X140415892Y-85239500D01*
X140284108Y-85239500D01*
X140156812Y-85273608D01*
X140042686Y-85339500D01*
X140042683Y-85339502D01*
X139949502Y-85432683D01*
X139949500Y-85432686D01*
X139883608Y-85546812D01*
X139861372Y-85629799D01*
X139849500Y-85674108D01*
X131840500Y-85674108D01*
X131840500Y-84974108D01*
X138379500Y-84974108D01*
X138379500Y-85105891D01*
X138413608Y-85233187D01*
X138436946Y-85273608D01*
X138479500Y-85347314D01*
X138572686Y-85440500D01*
X138686814Y-85506392D01*
X138814108Y-85540500D01*
X138814110Y-85540500D01*
X138945890Y-85540500D01*
X138945892Y-85540500D01*
X139073186Y-85506392D01*
X139187314Y-85440500D01*
X139280500Y-85347314D01*
X139346392Y-85233186D01*
X139380500Y-85105892D01*
X139380500Y-84974108D01*
X139346392Y-84846814D01*
X139280500Y-84732686D01*
X139255425Y-84707611D01*
X139221940Y-84646288D01*
X139226924Y-84576596D01*
X139268796Y-84520663D01*
X139286290Y-84510703D01*
X139286147Y-84510456D01*
X139303396Y-84500497D01*
X139407314Y-84440500D01*
X139500500Y-84347314D01*
X139566392Y-84233186D01*
X139600500Y-84105892D01*
X139600500Y-84034108D01*
X145209500Y-84034108D01*
X145209500Y-84165891D01*
X145243608Y-84293187D01*
X145249786Y-84303887D01*
X145309500Y-84407314D01*
X145402686Y-84500500D01*
X145516814Y-84566392D01*
X145644108Y-84600500D01*
X145644110Y-84600500D01*
X145775890Y-84600500D01*
X145775892Y-84600500D01*
X145903186Y-84566392D01*
X146017314Y-84500500D01*
X146110500Y-84407314D01*
X146176392Y-84293186D01*
X146210500Y-84165892D01*
X146210500Y-84034108D01*
X146176392Y-83906814D01*
X146110500Y-83792686D01*
X146017314Y-83699500D01*
X145930984Y-83649657D01*
X145903187Y-83633608D01*
X145839539Y-83616554D01*
X145775892Y-83599500D01*
X145644108Y-83599500D01*
X145516812Y-83633608D01*
X145402686Y-83699500D01*
X145402683Y-83699502D01*
X145309502Y-83792683D01*
X145309500Y-83792686D01*
X145243608Y-83906812D01*
X145209500Y-84034108D01*
X139600500Y-84034108D01*
X139600500Y-83974108D01*
X139566392Y-83846814D01*
X139500500Y-83732686D01*
X139407314Y-83639500D01*
X139338032Y-83599500D01*
X139293187Y-83573608D01*
X139213834Y-83552346D01*
X139165892Y-83539500D01*
X139034108Y-83539500D01*
X138906812Y-83573608D01*
X138792686Y-83639500D01*
X138792683Y-83639502D01*
X138699502Y-83732683D01*
X138699500Y-83732686D01*
X138633608Y-83846812D01*
X138617531Y-83906814D01*
X138599500Y-83974108D01*
X138599500Y-84105892D01*
X138603094Y-84119306D01*
X138633608Y-84233187D01*
X138666554Y-84290250D01*
X138699500Y-84347314D01*
X138699502Y-84347316D01*
X138724574Y-84372388D01*
X138758059Y-84433711D01*
X138753075Y-84503403D01*
X138711203Y-84559336D01*
X138693710Y-84569296D01*
X138693853Y-84569544D01*
X138572686Y-84639500D01*
X138572683Y-84639502D01*
X138479502Y-84732683D01*
X138479500Y-84732686D01*
X138413608Y-84846812D01*
X138379500Y-84974108D01*
X131840500Y-84974108D01*
X131840500Y-84633438D01*
X131860185Y-84566399D01*
X131912989Y-84520644D01*
X131972564Y-84511717D01*
X131972564Y-84510500D01*
X132099306Y-84510500D01*
X132099309Y-84510500D01*
X132213886Y-84479799D01*
X132316613Y-84420489D01*
X132400489Y-84336613D01*
X132459799Y-84233886D01*
X132490500Y-84119309D01*
X132490500Y-84070691D01*
X133659500Y-84070691D01*
X133659500Y-84189309D01*
X133690201Y-84303886D01*
X133749511Y-84406613D01*
X133833387Y-84490489D01*
X133936114Y-84549799D01*
X134050691Y-84580500D01*
X134050694Y-84580500D01*
X134169306Y-84580500D01*
X134169309Y-84580500D01*
X134283886Y-84549799D01*
X134386613Y-84490489D01*
X134470489Y-84406613D01*
X134529799Y-84303886D01*
X134560500Y-84189309D01*
X134560500Y-84070691D01*
X134529799Y-83956114D01*
X134470489Y-83853387D01*
X134386613Y-83769511D01*
X134283886Y-83710201D01*
X134169309Y-83679500D01*
X134050691Y-83679500D01*
X133936114Y-83710201D01*
X133936112Y-83710201D01*
X133936112Y-83710202D01*
X133833387Y-83769511D01*
X133833384Y-83769513D01*
X133749513Y-83853384D01*
X133749511Y-83853387D01*
X133701506Y-83936534D01*
X133690201Y-83956114D01*
X133659500Y-84070691D01*
X132490500Y-84070691D01*
X132490500Y-84000691D01*
X132459799Y-83886114D01*
X132400489Y-83783387D01*
X132316613Y-83699511D01*
X132213886Y-83640201D01*
X132099309Y-83609500D01*
X131980691Y-83609500D01*
X131980684Y-83609500D01*
X131980676Y-83609501D01*
X131980670Y-83609500D01*
X131972564Y-83609500D01*
X131972564Y-83608235D01*
X131911641Y-83598730D01*
X131859389Y-83552346D01*
X131840500Y-83486561D01*
X131840500Y-81900487D01*
X131860185Y-81833448D01*
X131912989Y-81787693D01*
X131982147Y-81777749D01*
X131996588Y-81780711D01*
X132070438Y-81800500D01*
X132149562Y-81800500D01*
X135156919Y-81800500D01*
X135223958Y-81820185D01*
X135269713Y-81872989D01*
X135279657Y-81942147D01*
X135275088Y-81958795D01*
X135275712Y-81958963D01*
X135273608Y-81966812D01*
X135273608Y-81966814D01*
X135268828Y-81984655D01*
X135239500Y-82094108D01*
X135239500Y-82225891D01*
X135273608Y-82353187D01*
X135276307Y-82357861D01*
X135339500Y-82467314D01*
X135432686Y-82560500D01*
X135546814Y-82626392D01*
X135674108Y-82660500D01*
X135674110Y-82660500D01*
X135805890Y-82660500D01*
X135805892Y-82660500D01*
X135933186Y-82626392D01*
X136047314Y-82560500D01*
X136140500Y-82467314D01*
X136206392Y-82353186D01*
X136240500Y-82225892D01*
X136240500Y-82094108D01*
X136206392Y-81966814D01*
X136206391Y-81966812D01*
X136204288Y-81958963D01*
X136207046Y-81958223D01*
X136201049Y-81902497D01*
X136232317Y-81840014D01*
X136292401Y-81804355D01*
X136323081Y-81800500D01*
X139474167Y-81800500D01*
X139541206Y-81820185D01*
X139561848Y-81836819D01*
X139843181Y-82118152D01*
X139876666Y-82179475D01*
X139879500Y-82205833D01*
X139879500Y-82295892D01*
X139896105Y-82357861D01*
X139913608Y-82423185D01*
X139913607Y-82423185D01*
X139941456Y-82471421D01*
X139979500Y-82537314D01*
X140072686Y-82630500D01*
X140186814Y-82696392D01*
X140314108Y-82730500D01*
X140314110Y-82730500D01*
X140445890Y-82730500D01*
X140445892Y-82730500D01*
X140573186Y-82696392D01*
X140687314Y-82630500D01*
X140780500Y-82537314D01*
X140846392Y-82423186D01*
X140880500Y-82295892D01*
X140880500Y-82226077D01*
X145519150Y-82226077D01*
X145519150Y-82357860D01*
X145553258Y-82485156D01*
X145583372Y-82537314D01*
X145619150Y-82599283D01*
X145712336Y-82692469D01*
X145826464Y-82758361D01*
X145953758Y-82792469D01*
X145953760Y-82792469D01*
X146085540Y-82792469D01*
X146085542Y-82792469D01*
X146212836Y-82758361D01*
X146326964Y-82692469D01*
X146390645Y-82628788D01*
X146451968Y-82595303D01*
X146478326Y-82592469D01*
X149207591Y-82592469D01*
X149207593Y-82592469D01*
X149284020Y-82571990D01*
X149352542Y-82532429D01*
X149408491Y-82476480D01*
X149460460Y-82424511D01*
X149461225Y-82423186D01*
X149500022Y-82355988D01*
X149520500Y-82279562D01*
X149520500Y-82200438D01*
X149500022Y-82124012D01*
X149497112Y-82118971D01*
X149480500Y-82056973D01*
X149480500Y-80930034D01*
X149500185Y-80862995D01*
X149552989Y-80817240D01*
X149622147Y-80807296D01*
X149685703Y-80836321D01*
X149711886Y-80868033D01*
X149714358Y-80872314D01*
X149807544Y-80965500D01*
X149921672Y-81031392D01*
X150048966Y-81065500D01*
X150048968Y-81065500D01*
X150180748Y-81065500D01*
X150180750Y-81065500D01*
X150308044Y-81031392D01*
X150422172Y-80965500D01*
X150515358Y-80872314D01*
X150581250Y-80758186D01*
X150615358Y-80630892D01*
X150615358Y-80499108D01*
X150581250Y-80371814D01*
X150515358Y-80257686D01*
X150422172Y-80164500D01*
X150392111Y-80147144D01*
X150343897Y-80096577D01*
X150330675Y-80027970D01*
X150356643Y-79963105D01*
X150392114Y-79932371D01*
X150393606Y-79931509D01*
X150447316Y-79900500D01*
X150540502Y-79807314D01*
X150606394Y-79693186D01*
X150640502Y-79565892D01*
X150640502Y-79434108D01*
X150606394Y-79306814D01*
X150540502Y-79192686D01*
X150447316Y-79099500D01*
X150390252Y-79066554D01*
X150333189Y-79033608D01*
X150269541Y-79016554D01*
X150205894Y-78999500D01*
X150074110Y-78999500D01*
X149946814Y-79033608D01*
X149832688Y-79099500D01*
X149832685Y-79099502D01*
X149739504Y-79192683D01*
X149739502Y-79192686D01*
X149711887Y-79240517D01*
X149661320Y-79288732D01*
X149592712Y-79301954D01*
X149527848Y-79275986D01*
X149487320Y-79219072D01*
X149480500Y-79178516D01*
X149480500Y-78298186D01*
X149500185Y-78231147D01*
X149552989Y-78185392D01*
X149622147Y-78175448D01*
X149685703Y-78204473D01*
X149711887Y-78236186D01*
X149764500Y-78327314D01*
X149857686Y-78420500D01*
X149971814Y-78486392D01*
X150099108Y-78520500D01*
X150099110Y-78520500D01*
X150230890Y-78520500D01*
X150230892Y-78520500D01*
X150358186Y-78486392D01*
X150472314Y-78420500D01*
X150500467Y-78392346D01*
X150522493Y-78380319D01*
X150542248Y-78364836D01*
X150552632Y-78363861D01*
X150561786Y-78358863D01*
X150586819Y-78360653D01*
X150611812Y-78358308D01*
X150621075Y-78363103D01*
X150631478Y-78363847D01*
X150651571Y-78378887D01*
X150673862Y-78390426D01*
X150681086Y-78400982D01*
X150687412Y-78405717D01*
X150695634Y-78418205D01*
X150699863Y-78425558D01*
X150699979Y-78425989D01*
X150734853Y-78486392D01*
X150734951Y-78486562D01*
X150739537Y-78494507D01*
X150739540Y-78494511D01*
X152052924Y-79807895D01*
X152086409Y-79869218D01*
X152081425Y-79938910D01*
X152079804Y-79943029D01*
X152029870Y-80063579D01*
X152029868Y-80063587D01*
X151989500Y-80266530D01*
X151989500Y-80473469D01*
X152029868Y-80676412D01*
X152029870Y-80676420D01*
X152096103Y-80836321D01*
X152109059Y-80867598D01*
X152150777Y-80930034D01*
X152224024Y-81039657D01*
X152370342Y-81185975D01*
X152370345Y-81185977D01*
X152542402Y-81300941D01*
X152733580Y-81380130D01*
X152936530Y-81420499D01*
X152936534Y-81420500D01*
X152936535Y-81420500D01*
X153143466Y-81420500D01*
X153143467Y-81420499D01*
X153346420Y-81380130D01*
X153537598Y-81300941D01*
X153709655Y-81185977D01*
X153855977Y-81039655D01*
X153970941Y-80867598D01*
X154050130Y-80676420D01*
X154090500Y-80473465D01*
X154090500Y-80266535D01*
X154050130Y-80063580D01*
X153970941Y-79872402D01*
X153855977Y-79700345D01*
X153855975Y-79700342D01*
X153709657Y-79554024D01*
X153542616Y-79442412D01*
X153537598Y-79439059D01*
X153525650Y-79434110D01*
X153346420Y-79359870D01*
X153346412Y-79359868D01*
X153143469Y-79319500D01*
X153143465Y-79319500D01*
X152936535Y-79319500D01*
X152936530Y-79319500D01*
X152733587Y-79359868D01*
X152733579Y-79359870D01*
X152613029Y-79409804D01*
X152543559Y-79417273D01*
X152481080Y-79385998D01*
X152477895Y-79382924D01*
X151316819Y-78221848D01*
X151283334Y-78160525D01*
X151280500Y-78134167D01*
X151280500Y-74420247D01*
X151989500Y-74420247D01*
X151989500Y-76159752D01*
X152001131Y-76218229D01*
X152001132Y-76218230D01*
X152045447Y-76284552D01*
X152111769Y-76328867D01*
X152111770Y-76328868D01*
X152170247Y-76340499D01*
X152170250Y-76340500D01*
X152170252Y-76340500D01*
X153909750Y-76340500D01*
X153909751Y-76340499D01*
X153924568Y-76337552D01*
X153968229Y-76328868D01*
X153968229Y-76328867D01*
X153968231Y-76328867D01*
X154034552Y-76284552D01*
X154078867Y-76218231D01*
X154078867Y-76218229D01*
X154078868Y-76218229D01*
X154090499Y-76159752D01*
X154090500Y-76159750D01*
X154090500Y-74420249D01*
X154090499Y-74420247D01*
X154078868Y-74361770D01*
X154078867Y-74361769D01*
X154034552Y-74295447D01*
X153968230Y-74251132D01*
X153968229Y-74251131D01*
X153909752Y-74239500D01*
X153909748Y-74239500D01*
X152170252Y-74239500D01*
X152170247Y-74239500D01*
X152111770Y-74251131D01*
X152111769Y-74251132D01*
X152045447Y-74295447D01*
X152001132Y-74361769D01*
X152001131Y-74361770D01*
X151989500Y-74420247D01*
X151280500Y-74420247D01*
X151280500Y-72838676D01*
X151300185Y-72771637D01*
X151316819Y-72750995D01*
X151380500Y-72687314D01*
X151446392Y-72573186D01*
X151480500Y-72445892D01*
X151480500Y-72314108D01*
X151446392Y-72186814D01*
X151380500Y-72072686D01*
X151287314Y-71979500D01*
X151230250Y-71946554D01*
X151173187Y-71913608D01*
X151109539Y-71896554D01*
X151045892Y-71879500D01*
X150914108Y-71879500D01*
X150786812Y-71913608D01*
X150672686Y-71979500D01*
X150672683Y-71979502D01*
X150579502Y-72072683D01*
X150579500Y-72072686D01*
X150513608Y-72186812D01*
X150479500Y-72314108D01*
X150479500Y-72445891D01*
X150513608Y-72573187D01*
X150546554Y-72630250D01*
X150579500Y-72687314D01*
X150579502Y-72687316D01*
X150643181Y-72750995D01*
X150676666Y-72812318D01*
X150679500Y-72838676D01*
X150679500Y-77527324D01*
X150659815Y-77594363D01*
X150607011Y-77640118D01*
X150537853Y-77650062D01*
X150479539Y-77623431D01*
X150478760Y-77624447D01*
X150474344Y-77621058D01*
X150474297Y-77621037D01*
X150474207Y-77620953D01*
X150472316Y-77619502D01*
X150472314Y-77619500D01*
X150372455Y-77561846D01*
X150358187Y-77553608D01*
X150294539Y-77536554D01*
X150230892Y-77519500D01*
X150099108Y-77519500D01*
X149971812Y-77553608D01*
X149857686Y-77619500D01*
X149857683Y-77619502D01*
X149764502Y-77712683D01*
X149764500Y-77712686D01*
X149711887Y-77803814D01*
X149661319Y-77852029D01*
X149592712Y-77865251D01*
X149527848Y-77839283D01*
X149487320Y-77782369D01*
X149480500Y-77741813D01*
X149480500Y-71908674D01*
X149500185Y-71841635D01*
X149516819Y-71820993D01*
X149580500Y-71757312D01*
X149646392Y-71643184D01*
X149680500Y-71515890D01*
X149680500Y-71384106D01*
X149646392Y-71256812D01*
X149580500Y-71142684D01*
X149487314Y-71049498D01*
X149430250Y-71016552D01*
X149373187Y-70983606D01*
X149309539Y-70966552D01*
X149245892Y-70949498D01*
X149114108Y-70949498D01*
X148986812Y-70983606D01*
X148872686Y-71049498D01*
X148872683Y-71049500D01*
X148779502Y-71142681D01*
X148779500Y-71142684D01*
X148713608Y-71256810D01*
X148679500Y-71384106D01*
X148679500Y-71515889D01*
X148713608Y-71643185D01*
X148746554Y-71700248D01*
X148779500Y-71757312D01*
X148779502Y-71757314D01*
X148843181Y-71820993D01*
X148876666Y-71882316D01*
X148879500Y-71908674D01*
X148879500Y-81867469D01*
X148859815Y-81934508D01*
X148807011Y-81980263D01*
X148755500Y-81991469D01*
X146478326Y-81991469D01*
X146411287Y-81971784D01*
X146390645Y-81955150D01*
X146326966Y-81891471D01*
X146326964Y-81891469D01*
X146232308Y-81836819D01*
X146212837Y-81825577D01*
X146149189Y-81808523D01*
X146085542Y-81791469D01*
X145953758Y-81791469D01*
X145826462Y-81825577D01*
X145712336Y-81891469D01*
X145712333Y-81891471D01*
X145619152Y-81984652D01*
X145619150Y-81984655D01*
X145553258Y-82098781D01*
X145519150Y-82226077D01*
X140880500Y-82226077D01*
X140880500Y-82164108D01*
X140846392Y-82036814D01*
X140780500Y-81922686D01*
X140687314Y-81829500D01*
X140621443Y-81791469D01*
X140573187Y-81763608D01*
X140509539Y-81746554D01*
X140445892Y-81729500D01*
X140355833Y-81729500D01*
X140288794Y-81709815D01*
X140268152Y-81693181D01*
X139834513Y-81259541D01*
X139834512Y-81259540D01*
X139828342Y-81255977D01*
X139828342Y-81255978D01*
X139765989Y-81219979D01*
X139765990Y-81219979D01*
X139740513Y-81213152D01*
X139689562Y-81199500D01*
X139689560Y-81199500D01*
X132534500Y-81199500D01*
X132467461Y-81179815D01*
X132421706Y-81127011D01*
X132410500Y-81075500D01*
X132410500Y-78100437D01*
X132390020Y-78024007D01*
X132390017Y-78024002D01*
X132350464Y-77955493D01*
X132350458Y-77955485D01*
X131956819Y-77561846D01*
X131923334Y-77500523D01*
X131920500Y-77474165D01*
X131920500Y-77384108D01*
X131920500Y-77384106D01*
X131886392Y-77256812D01*
X131820500Y-77142684D01*
X131727314Y-77049498D01*
X131670250Y-77016552D01*
X131613187Y-76983606D01*
X131549539Y-76966552D01*
X131485892Y-76949498D01*
X131354108Y-76949498D01*
X131226812Y-76983606D01*
X131112686Y-77049498D01*
X131112683Y-77049500D01*
X131019502Y-77142681D01*
X131019500Y-77142684D01*
X130953608Y-77256810D01*
X130919500Y-77384106D01*
X130919500Y-77515890D01*
X130931814Y-77561846D01*
X130953608Y-77643185D01*
X130957579Y-77650062D01*
X131019500Y-77757312D01*
X131112686Y-77850498D01*
X131226814Y-77916390D01*
X131354108Y-77950498D01*
X131354110Y-77950498D01*
X131444167Y-77950498D01*
X131511206Y-77970183D01*
X131531848Y-77986817D01*
X131773181Y-78228150D01*
X131787884Y-78255077D01*
X131804477Y-78280896D01*
X131805368Y-78287096D01*
X131806666Y-78289473D01*
X131809500Y-78315831D01*
X131809500Y-78342175D01*
X131789815Y-78409214D01*
X131737011Y-78454969D01*
X131667853Y-78464913D01*
X131623501Y-78449563D01*
X131613187Y-78443608D01*
X131526941Y-78420499D01*
X131485892Y-78409500D01*
X131354108Y-78409500D01*
X131226812Y-78443608D01*
X131112686Y-78509500D01*
X131112683Y-78509502D01*
X131019502Y-78602683D01*
X131019500Y-78602686D01*
X130953608Y-78716812D01*
X130919500Y-78844108D01*
X130919500Y-78975891D01*
X130953608Y-79103187D01*
X130986554Y-79160250D01*
X131019500Y-79217314D01*
X131112686Y-79310500D01*
X131177501Y-79347921D01*
X131225715Y-79398487D01*
X131239500Y-79455307D01*
X131239500Y-83869495D01*
X131219815Y-83936534D01*
X131167011Y-83982289D01*
X131097853Y-83992233D01*
X131053501Y-83976883D01*
X131013188Y-83953608D01*
X130928323Y-83930869D01*
X130885892Y-83919500D01*
X130754108Y-83919500D01*
X130626812Y-83953608D01*
X130512686Y-84019500D01*
X130512683Y-84019502D01*
X130419502Y-84112683D01*
X130419500Y-84112686D01*
X130353608Y-84226812D01*
X130324188Y-84336612D01*
X130319500Y-84354108D01*
X125900553Y-84354108D01*
X125910080Y-82876530D01*
X126989500Y-82876530D01*
X126989500Y-83083469D01*
X127029868Y-83286412D01*
X127029870Y-83286420D01*
X127109058Y-83477596D01*
X127224024Y-83649657D01*
X127370342Y-83795975D01*
X127370345Y-83795977D01*
X127542402Y-83910941D01*
X127733580Y-83990130D01*
X127936530Y-84030499D01*
X127936534Y-84030500D01*
X127936535Y-84030500D01*
X128143466Y-84030500D01*
X128143467Y-84030499D01*
X128346420Y-83990130D01*
X128537598Y-83910941D01*
X128709655Y-83795977D01*
X128855977Y-83649655D01*
X128970941Y-83477598D01*
X129050130Y-83286420D01*
X129090500Y-83083465D01*
X129090500Y-82876535D01*
X129050130Y-82673580D01*
X128970941Y-82482402D01*
X128855977Y-82310345D01*
X128855975Y-82310342D01*
X128709657Y-82164024D01*
X128549442Y-82056973D01*
X128537598Y-82049059D01*
X128508031Y-82036812D01*
X128346420Y-81969870D01*
X128346412Y-81969868D01*
X128143469Y-81929500D01*
X128143465Y-81929500D01*
X127936535Y-81929500D01*
X127936530Y-81929500D01*
X127733587Y-81969868D01*
X127733579Y-81969870D01*
X127542403Y-82049058D01*
X127370342Y-82164024D01*
X127224024Y-82310342D01*
X127109058Y-82482403D01*
X127029870Y-82673579D01*
X127029868Y-82673587D01*
X126989500Y-82876530D01*
X125910080Y-82876530D01*
X125926458Y-80336530D01*
X126989500Y-80336530D01*
X126989500Y-80543469D01*
X127015946Y-80676420D01*
X127029870Y-80746420D01*
X127109059Y-80937598D01*
X127166541Y-81023626D01*
X127224024Y-81109657D01*
X127370342Y-81255975D01*
X127370345Y-81255977D01*
X127542402Y-81370941D01*
X127733580Y-81450130D01*
X127936530Y-81490499D01*
X127936534Y-81490500D01*
X127936535Y-81490500D01*
X128143466Y-81490500D01*
X128143467Y-81490499D01*
X128346420Y-81450130D01*
X128537598Y-81370941D01*
X128709655Y-81255977D01*
X128709657Y-81255975D01*
X128709660Y-81255973D01*
X128855974Y-81109658D01*
X128855975Y-81109657D01*
X128855977Y-81109655D01*
X128970941Y-80937598D01*
X129050130Y-80746420D01*
X129090500Y-80543465D01*
X129090500Y-80336535D01*
X129050130Y-80133580D01*
X128970941Y-79942402D01*
X128855977Y-79770345D01*
X128855975Y-79770342D01*
X128709657Y-79624024D01*
X128604892Y-79554023D01*
X128537598Y-79509059D01*
X128346420Y-79429870D01*
X128346412Y-79429868D01*
X128143469Y-79389500D01*
X128143465Y-79389500D01*
X127936535Y-79389500D01*
X127936530Y-79389500D01*
X127733587Y-79429868D01*
X127733579Y-79429870D01*
X127542403Y-79509058D01*
X127370342Y-79624024D01*
X127224024Y-79770342D01*
X127109058Y-79942403D01*
X127029870Y-80133579D01*
X127029868Y-80133587D01*
X126989500Y-80336530D01*
X125926458Y-80336530D01*
X125964154Y-74490247D01*
X126989500Y-74490247D01*
X126989500Y-76229752D01*
X127001131Y-76288229D01*
X127001132Y-76288230D01*
X127045447Y-76354552D01*
X127111769Y-76398867D01*
X127111770Y-76398868D01*
X127170247Y-76410499D01*
X127170250Y-76410500D01*
X127170252Y-76410500D01*
X128909750Y-76410500D01*
X128909751Y-76410499D01*
X128924568Y-76407552D01*
X128968229Y-76398868D01*
X128968229Y-76398867D01*
X128968231Y-76398867D01*
X129034552Y-76354552D01*
X129078867Y-76288231D01*
X129078867Y-76288229D01*
X129078868Y-76288229D01*
X129090499Y-76229752D01*
X129090500Y-76229750D01*
X129090500Y-75884106D01*
X130319500Y-75884106D01*
X130319500Y-76015889D01*
X130353608Y-76143185D01*
X130386554Y-76200248D01*
X130419500Y-76257312D01*
X130512686Y-76350498D01*
X130596465Y-76398868D01*
X130616610Y-76410499D01*
X130626814Y-76416390D01*
X130754108Y-76450498D01*
X130754110Y-76450498D01*
X130885890Y-76450498D01*
X130885892Y-76450498D01*
X131013186Y-76416390D01*
X131127314Y-76350498D01*
X131220500Y-76257312D01*
X131286392Y-76143184D01*
X131320500Y-76015890D01*
X131320500Y-75884106D01*
X131286392Y-75756812D01*
X131220500Y-75642684D01*
X131127314Y-75549498D01*
X131070250Y-75516552D01*
X131013187Y-75483606D01*
X130949539Y-75466552D01*
X130885892Y-75449498D01*
X130754108Y-75449498D01*
X130626812Y-75483606D01*
X130512686Y-75549498D01*
X130512683Y-75549500D01*
X130419502Y-75642681D01*
X130419500Y-75642684D01*
X130353608Y-75756810D01*
X130319500Y-75884106D01*
X129090500Y-75884106D01*
X129090500Y-74490249D01*
X129090499Y-74490247D01*
X129078868Y-74431773D01*
X129078866Y-74431767D01*
X129047288Y-74384507D01*
X130119500Y-74384507D01*
X130119500Y-74516290D01*
X130153608Y-74643586D01*
X130186554Y-74700649D01*
X130219500Y-74757713D01*
X130312686Y-74850899D01*
X130426814Y-74916791D01*
X130554108Y-74950899D01*
X130554110Y-74950899D01*
X130685890Y-74950899D01*
X130685892Y-74950899D01*
X130813186Y-74916791D01*
X130927314Y-74850899D01*
X131020500Y-74757713D01*
X131086392Y-74643585D01*
X131120500Y-74516291D01*
X131120500Y-74384507D01*
X131086392Y-74257213D01*
X131020500Y-74143085D01*
X130927314Y-74049899D01*
X130870250Y-74016953D01*
X130813187Y-73984007D01*
X130749539Y-73966953D01*
X130685892Y-73949899D01*
X130554108Y-73949899D01*
X130426812Y-73984007D01*
X130312686Y-74049899D01*
X130312683Y-74049901D01*
X130219502Y-74143082D01*
X130219500Y-74143085D01*
X130153608Y-74257211D01*
X130119500Y-74384507D01*
X129047288Y-74384507D01*
X129034552Y-74365447D01*
X128968230Y-74321132D01*
X128968229Y-74321131D01*
X128909752Y-74309500D01*
X128909748Y-74309500D01*
X127170252Y-74309500D01*
X127170247Y-74309500D01*
X127111770Y-74321131D01*
X127111769Y-74321132D01*
X127045447Y-74365447D01*
X127001132Y-74431769D01*
X127001131Y-74431770D01*
X126989500Y-74490247D01*
X125964154Y-74490247D01*
X126009251Y-67496184D01*
X126029367Y-67429276D01*
X126082465Y-67383863D01*
X126132269Y-67372991D01*
X154410000Y-67150000D01*
X155647253Y-67067516D01*
X155715452Y-67082697D01*
G37*
%TD.AperFunction*%
%TD*%
M02*
