M48
; DRILL file KiCad 10.0.3 date 2026-08-11T23:10:39
; FORMAT={-:-/ absolute / metric / decimal}
; #@! TF.CreationDate,2026-08-11T23:10:39+05:30
; #@! TF.GenerationSoftware,Kicad,Pcbnew,10.0.3
; #@! TF.FileFunction,Plated,1,4,PTH
FMAT,2
METRIC
; #@! TA.AperFunction,Plated,PTH,ViaDrill
T1C0.200
; #@! TA.AperFunction,Plated,PTH,ComponentDrill
T2C0.200
; #@! TA.AperFunction,Plated,PTH,ViaDrill
T3C0.300
; #@! TA.AperFunction,Plated,PTH,ComponentDrill
T4C0.600
; #@! TA.AperFunction,Plated,PTH,ComponentDrill
T5C1.000
%
G90
G05
T1
X127.99Y-98.42
X128.29Y-70.17
X128.364Y-68.35
X128.77Y-67.95
X132.04Y-84.06
X134.11Y-84.13
X139.78Y-92.01
X142.9Y-85.05
X148.85Y-88.1
X151.91Y-67.69
X154.92Y-100.61
T2
X140.0Y-73.55
X140.0Y-74.65
X140.55Y-73.0
X140.55Y-74.1
X140.55Y-75.2
X141.1Y-73.55
X141.1Y-74.65
X141.65Y-73.0
X141.65Y-74.1
X141.65Y-75.2
X142.2Y-73.55
X142.2Y-74.65
T3
X130.62Y-74.45
X130.82Y-75.95
X130.82Y-84.42
X131.42Y-77.45
X131.42Y-78.91
X131.54Y-87.19
X134.76Y-91.75
X135.74Y-82.16
X136.01Y-86.59
X138.88Y-85.04
X139.1Y-84.04
X140.35Y-85.74
X140.38Y-82.23
X141.39Y-85.43
X142.17Y-90.1
X145.41Y-92.81
X145.71Y-84.1
X146.02Y-82.292
X148.64Y-94.55
X149.18Y-71.45
X150.115Y-80.565
X150.14Y-79.5
X150.165Y-78.02
X150.18Y-94.26
X150.98Y-72.38
X151.29Y-90.11
X151.44Y-85.29
X154.76Y-85.72
T5
X128.04Y-75.36
X128.04Y-77.9
X128.04Y-80.44
X128.04Y-82.98
X128.04Y-85.52
X128.04Y-88.06
X128.04Y-90.6
X128.04Y-93.14
X153.04Y-75.29
X153.04Y-77.83
X153.04Y-80.37
X153.04Y-82.91
X153.04Y-85.45
X153.04Y-87.99
X153.04Y-90.53
X153.04Y-93.07
T4
G00X137.17Y-94.565
M15
G01X137.17Y-95.665
M16
G05
G00X137.17Y-98.915
M15
G01X137.17Y-99.715
M16
G05
G00X145.81Y-94.565
M15
G01X145.81Y-95.665
M16
G05
G00X145.81Y-98.915
M15
G01X145.81Y-99.715
M16
G05
M30
