%TF.GenerationSoftware,KiCad,Pcbnew,10.0.3*%
%TF.CreationDate,2026-08-11T23:10:56+05:30*%
%TF.ProjectId,esp32-c3-mini,65737033-322d-4633-932d-6d696e692e6b,rev?*%
%TF.SameCoordinates,Original*%
%TF.FileFunction,Copper,L4,Bot*%
%TF.FilePolarity,Positive*%
%FSLAX46Y46*%
G04 Gerber Fmt 4.6, Leading zero omitted, Abs format (unit mm)*
G04 Created by KiCad (PCBNEW 10.0.3) date 2026-08-11 23:10:56*
%MOMM*%
%LPD*%
G01*
G04 APERTURE LIST*
%TA.AperFunction,ComponentPad*%
%ADD10O,1.000000X2.100000*%
%TD*%
%TA.AperFunction,ComponentPad*%
%ADD11O,1.000000X1.800000*%
%TD*%
%TA.AperFunction,HeatsinkPad*%
%ADD12C,0.600000*%
%TD*%
%TA.AperFunction,ComponentPad*%
%ADD13R,1.700000X1.700000*%
%TD*%
%TA.AperFunction,ComponentPad*%
%ADD14C,1.700000*%
%TD*%
%TA.AperFunction,ViaPad*%
%ADD15C,0.500000*%
%TD*%
%TA.AperFunction,ViaPad*%
%ADD16C,0.600000*%
%TD*%
%TA.AperFunction,Conductor*%
%ADD17C,0.200000*%
%TD*%
G04 APERTURE END LIST*
D10*
%TO.P,J1,SH,SHIELD_SH*%
%TO.N,GND*%
X137170000Y-95115000D03*
D11*
X137170000Y-99315000D03*
D10*
X145810000Y-95115000D03*
D11*
X145810000Y-99315000D03*
%TD*%
D12*
%TO.P,U3,19,GND_19*%
%TO.N,GND*%
X140000000Y-73550000D03*
X140000000Y-74650000D03*
X140550000Y-73000000D03*
X140550000Y-74100000D03*
X140550000Y-75200000D03*
X141100000Y-73550000D03*
X141100000Y-74650000D03*
X141650000Y-73000000D03*
X141650000Y-74100000D03*
X141650000Y-75200000D03*
X142200000Y-73550000D03*
X142200000Y-74650000D03*
%TD*%
D13*
%TO.P,J2,1,Pin_1_1*%
%TO.N,+3V3*%
X128040000Y-75360000D03*
D14*
%TO.P,J2,2,Pin_2_2*%
%TO.N,GND*%
X128040000Y-77900000D03*
%TO.P,J2,3,Pin_3_3*%
%TO.N,EN*%
X128040000Y-80440000D03*
%TO.P,J2,4,Pin_4_4*%
%TO.N,IO4*%
X128040000Y-82980000D03*
%TO.P,J2,5,Pin_5_5*%
%TO.N,IO5*%
X128040000Y-85520000D03*
%TO.P,J2,6,Pin_6_6*%
%TO.N,IO6*%
X128040000Y-88060000D03*
%TO.P,J2,7,Pin_7_7*%
%TO.N,IO7*%
X128040000Y-90600000D03*
%TO.P,J2,8,Pin_8_8*%
%TO.N,IO9*%
X128040000Y-93140000D03*
%TD*%
D13*
%TO.P,J3,1,Pin_1_1*%
%TO.N,+5V*%
X153040000Y-75290000D03*
D14*
%TO.P,J3,2,Pin_2_2*%
%TO.N,GND*%
X153040000Y-77830000D03*
%TO.P,J3,3,Pin_3_3*%
%TO.N,IO3*%
X153040000Y-80370000D03*
%TO.P,J3,4,Pin_4_4*%
%TO.N,GND*%
X153040000Y-82910000D03*
%TO.P,J3,5,Pin_5_5*%
%TO.N,RXD*%
X153040000Y-85450000D03*
%TO.P,J3,6,Pin_6_6*%
%TO.N,TXD*%
X153040000Y-87990000D03*
%TO.P,J3,7,Pin_7_7*%
%TO.N,GND*%
X153040000Y-90530000D03*
%TO.P,J3,8,Pin_8_8*%
%TO.N,IO10*%
X153040000Y-93070000D03*
%TD*%
D15*
%TO.N,GND*%
X139780000Y-92010000D03*
X128290000Y-70170000D03*
X128363764Y-68350000D03*
X151910000Y-67690000D03*
X154920000Y-100610000D03*
X127990000Y-98420000D03*
X148850000Y-88100000D03*
X128770000Y-67950000D03*
%TO.N,+5V*%
X142900000Y-85050000D03*
%TO.N,+3V3*%
X132040000Y-84060000D03*
%TO.N,+5V*%
X134110000Y-84130000D03*
D16*
%TO.N,VBUS*%
X145410000Y-92810000D03*
X142170000Y-90100000D03*
%TO.N,+5V*%
X135740000Y-82160000D03*
X141390000Y-85430000D03*
X140350000Y-85740000D03*
X138880000Y-85040000D03*
%TO.N,+3V3*%
X145710000Y-84100000D03*
X136010000Y-86590000D03*
X150180000Y-94260000D03*
X139100000Y-84040000D03*
%TO.N,EN*%
X134760000Y-91750000D03*
%TO.N,IO9*%
X131540000Y-87190000D03*
X131420000Y-78910000D03*
X148640000Y-94550000D03*
%TO.N,IO7*%
X130820000Y-75949998D03*
X130820000Y-84420000D03*
%TO.N,IO6*%
X130620000Y-74450399D03*
%TO.N,RXD*%
X151440000Y-85290000D03*
X150140002Y-79500000D03*
%TO.N,IO10*%
X151290000Y-90110000D03*
X150114858Y-80565000D03*
%TO.N,IO3*%
X150980000Y-72380000D03*
%TO.N,TXD*%
X154760000Y-85720000D03*
X150165000Y-78020000D03*
%TO.N,IO2*%
X146019650Y-82291969D03*
X149180000Y-71449998D03*
%TO.N,IO8*%
X131420000Y-77449998D03*
X140380000Y-82230000D03*
%TD*%
%TO.N,GND*%
D17*
X128363764Y-69256236D02*
X128363764Y-68350000D01*
X128290000Y-69330000D02*
X128363764Y-69256236D01*
X128290000Y-70170000D02*
X128290000Y-69330000D01*
%TO.N,+5V*%
X139180000Y-83220000D02*
X141390000Y-85430000D01*
X135020000Y-83220000D02*
X139180000Y-83220000D01*
X134110000Y-84130000D02*
X135020000Y-83220000D01*
X142520000Y-85430000D02*
X142900000Y-85050000D01*
X141390000Y-85430000D02*
X142520000Y-85430000D01*
X141080000Y-85740000D02*
X141390000Y-85430000D01*
X140350000Y-85740000D02*
X141080000Y-85740000D01*
X139650000Y-85040000D02*
X140350000Y-85740000D01*
X138880000Y-85040000D02*
X139650000Y-85040000D01*
X152117182Y-75290000D02*
X153040000Y-75290000D01*
X142900000Y-84507182D02*
X152117182Y-75290000D01*
X142900000Y-85050000D02*
X142900000Y-84507182D01*
%TO.N,+3V3*%
X131192182Y-79460000D02*
X128040000Y-76307818D01*
X128040000Y-76307818D02*
X128040000Y-75360000D01*
X131370000Y-79620000D02*
X131210000Y-79460000D01*
X131370000Y-83390000D02*
X131370000Y-79620000D01*
X131210000Y-79460000D02*
X131192182Y-79460000D01*
X132040000Y-84060000D02*
X131370000Y-83390000D01*
%TO.N,+5V*%
X134320000Y-83920000D02*
X134320000Y-83580000D01*
X134320000Y-83580000D02*
X135740000Y-82160000D01*
X134110000Y-84130000D02*
X134320000Y-83920000D01*
%TO.N,VBUS*%
X144880000Y-92810000D02*
X142170000Y-90100000D01*
X145410000Y-92810000D02*
X144880000Y-92810000D01*
%TO.N,+3V3*%
X138560000Y-84040000D02*
X136010000Y-86590000D01*
X145710000Y-84100000D02*
X146710000Y-84100000D01*
X139100000Y-84040000D02*
X138560000Y-84040000D01*
X150180000Y-87570000D02*
X150180000Y-94260000D01*
X146710000Y-84100000D02*
X150180000Y-87570000D01*
%TO.N,EN*%
X126200000Y-91750000D02*
X126190000Y-91760000D01*
X126190000Y-80510000D02*
X126150000Y-80470000D01*
X128040000Y-80440000D02*
X126180000Y-80440000D01*
X126190000Y-91760000D02*
X126190000Y-80510000D01*
X134760000Y-91750000D02*
X126200000Y-91750000D01*
X126180000Y-80440000D02*
X126150000Y-80470000D01*
%TO.N,IO9*%
X129890000Y-95910000D02*
X128040000Y-94060000D01*
X148640000Y-94550000D02*
X146000000Y-97190000D01*
X128040000Y-94060000D02*
X128040000Y-93140000D01*
X132120000Y-97190000D02*
X130840000Y-95910000D01*
X130840000Y-95910000D02*
X129890000Y-95910000D01*
X146000000Y-97190000D02*
X132120000Y-97190000D01*
%TO.N,IO6*%
X128040000Y-88050000D02*
X128040000Y-88060000D01*
%TD*%
%TA.AperFunction,Conductor*%
%TO.N,GND*%
G36*
X155715452Y-67082697D02*
G01*
X155764618Y-67132341D01*
X155779500Y-67191241D01*
X155779500Y-89626129D01*
X155779498Y-89626846D01*
X155710716Y-101526097D01*
X155690644Y-101593021D01*
X155637577Y-101638470D01*
X155586096Y-101649378D01*
X125923878Y-101500670D01*
X125856938Y-101480650D01*
X125811449Y-101427617D01*
X125800500Y-101376672D01*
X125800500Y-99871887D01*
X125800503Y-99871087D01*
X125830786Y-95174485D01*
X125850449Y-92124919D01*
X125870565Y-92058009D01*
X125923663Y-92012596D01*
X125992884Y-92003098D01*
X126036446Y-92018333D01*
X126074011Y-92040021D01*
X126150438Y-92060500D01*
X126150440Y-92060500D01*
X126229560Y-92060500D01*
X126229562Y-92060500D01*
X126251114Y-92054724D01*
X126283207Y-92050500D01*
X127370928Y-92050500D01*
X127437967Y-92070185D01*
X127483722Y-92122989D01*
X127493666Y-92192147D01*
X127464641Y-92255703D01*
X127439818Y-92277602D01*
X127370349Y-92324019D01*
X127370341Y-92324025D01*
X127224024Y-92470342D01*
X127109058Y-92642403D01*
X127029870Y-92833579D01*
X127029868Y-92833587D01*
X126989500Y-93036530D01*
X126989500Y-93243469D01*
X127029868Y-93446412D01*
X127029870Y-93446420D01*
X127109058Y-93637596D01*
X127224024Y-93809657D01*
X127370342Y-93955975D01*
X127542403Y-94070942D01*
X127709766Y-94140266D01*
X127764169Y-94184107D01*
X127769700Y-94192827D01*
X127799537Y-94244507D01*
X127799539Y-94244510D01*
X127799540Y-94244511D01*
X129649540Y-96094511D01*
X129705489Y-96150460D01*
X129705491Y-96150461D01*
X129705495Y-96150464D01*
X129741550Y-96171280D01*
X129774011Y-96190021D01*
X129850438Y-96210500D01*
X130664167Y-96210500D01*
X130731206Y-96230185D01*
X130751848Y-96246819D01*
X131879540Y-97374511D01*
X131935489Y-97430460D01*
X131935491Y-97430461D01*
X131935495Y-97430464D01*
X132004004Y-97470017D01*
X132004011Y-97470021D01*
X132080438Y-97490500D01*
X132080440Y-97490500D01*
X146039560Y-97490500D01*
X146039562Y-97490500D01*
X146115989Y-97470021D01*
X146184511Y-97430460D01*
X146240460Y-97374511D01*
X148528151Y-95086818D01*
X148589474Y-95053334D01*
X148615832Y-95050500D01*
X148705890Y-95050500D01*
X148705892Y-95050500D01*
X148833186Y-95016392D01*
X148947314Y-94950500D01*
X149040500Y-94857314D01*
X149106392Y-94743186D01*
X149140500Y-94615892D01*
X149140500Y-94484108D01*
X149106392Y-94356814D01*
X149040500Y-94242686D01*
X148947314Y-94149500D01*
X148890250Y-94116554D01*
X148833187Y-94083608D01*
X148769539Y-94066554D01*
X148705892Y-94049500D01*
X148574108Y-94049500D01*
X148446812Y-94083608D01*
X148332686Y-94149500D01*
X148332683Y-94149502D01*
X148239502Y-94242683D01*
X148239500Y-94242686D01*
X148173608Y-94356812D01*
X148139500Y-94484108D01*
X148139500Y-94574166D01*
X148119815Y-94641205D01*
X148103181Y-94661847D01*
X145911848Y-96853181D01*
X145850525Y-96886666D01*
X145824167Y-96889500D01*
X132295833Y-96889500D01*
X132228794Y-96869815D01*
X132208152Y-96853181D01*
X131024512Y-95669541D01*
X131024511Y-95669540D01*
X130955991Y-95629980D01*
X130955990Y-95629979D01*
X130930513Y-95623152D01*
X130879562Y-95609500D01*
X130879560Y-95609500D01*
X130065833Y-95609500D01*
X129998794Y-95589815D01*
X129978152Y-95573181D01*
X129964205Y-95559234D01*
X138024500Y-95559234D01*
X138024500Y-95710765D01*
X138063719Y-95857136D01*
X138101602Y-95922750D01*
X138139485Y-95988365D01*
X138246635Y-96095515D01*
X138377865Y-96171281D01*
X138524234Y-96210500D01*
X138524236Y-96210500D01*
X138675764Y-96210500D01*
X138675766Y-96210500D01*
X138822135Y-96171281D01*
X138953365Y-96095515D01*
X139060515Y-95988365D01*
X139136281Y-95857135D01*
X139175500Y-95710766D01*
X139175500Y-95559234D01*
X143804500Y-95559234D01*
X143804500Y-95710765D01*
X143843719Y-95857136D01*
X143881602Y-95922750D01*
X143919485Y-95988365D01*
X144026635Y-96095515D01*
X144157865Y-96171281D01*
X144304234Y-96210500D01*
X144304236Y-96210500D01*
X144455764Y-96210500D01*
X144455766Y-96210500D01*
X144602135Y-96171281D01*
X144733365Y-96095515D01*
X144840515Y-95988365D01*
X144916281Y-95857135D01*
X144955500Y-95710766D01*
X144955500Y-95559234D01*
X144916281Y-95412865D01*
X144840515Y-95281635D01*
X144733365Y-95174485D01*
X144667750Y-95136602D01*
X144602136Y-95098719D01*
X144528950Y-95079109D01*
X144455766Y-95059500D01*
X144304234Y-95059500D01*
X144157863Y-95098719D01*
X144026635Y-95174485D01*
X144026632Y-95174487D01*
X143919487Y-95281632D01*
X143919485Y-95281635D01*
X143843719Y-95412863D01*
X143804500Y-95559234D01*
X139175500Y-95559234D01*
X139136281Y-95412865D01*
X139060515Y-95281635D01*
X138953365Y-95174485D01*
X138887750Y-95136602D01*
X138822136Y-95098719D01*
X138748950Y-95079109D01*
X138675766Y-95059500D01*
X138524234Y-95059500D01*
X138377863Y-95098719D01*
X138246635Y-95174485D01*
X138246632Y-95174487D01*
X138139487Y-95281632D01*
X138139485Y-95281635D01*
X138063719Y-95412863D01*
X138024500Y-95559234D01*
X129964205Y-95559234D01*
X128607460Y-94202489D01*
X128573975Y-94141166D01*
X128578959Y-94071474D01*
X128620831Y-94015541D01*
X128626241Y-94011711D01*
X128709655Y-93955977D01*
X128855977Y-93809655D01*
X128970941Y-93637598D01*
X129050130Y-93446420D01*
X129090500Y-93243465D01*
X129090500Y-93036535D01*
X129050130Y-92833580D01*
X128970941Y-92642402D01*
X128855977Y-92470345D01*
X128855975Y-92470342D01*
X128709658Y-92324025D01*
X128709650Y-92324019D01*
X128640182Y-92277602D01*
X128595376Y-92223990D01*
X128586669Y-92154665D01*
X128616823Y-92091638D01*
X128676266Y-92054918D01*
X128709072Y-92050500D01*
X134301324Y-92050500D01*
X134368363Y-92070185D01*
X134389005Y-92086819D01*
X134452686Y-92150500D01*
X134566814Y-92216392D01*
X134694108Y-92250500D01*
X134694110Y-92250500D01*
X134825890Y-92250500D01*
X134825892Y-92250500D01*
X134953186Y-92216392D01*
X135067314Y-92150500D01*
X135160500Y-92057314D01*
X135226392Y-91943186D01*
X135260500Y-91815892D01*
X135260500Y-91684108D01*
X135226392Y-91556814D01*
X135160500Y-91442686D01*
X135067314Y-91349500D01*
X135010250Y-91316554D01*
X134953187Y-91283608D01*
X134852427Y-91256610D01*
X134825892Y-91249500D01*
X134694108Y-91249500D01*
X134566812Y-91283608D01*
X134452686Y-91349500D01*
X134452683Y-91349502D01*
X134389005Y-91413181D01*
X134327682Y-91446666D01*
X134301324Y-91449500D01*
X128967796Y-91449500D01*
X128900757Y-91429815D01*
X128855002Y-91377011D01*
X128845058Y-91307853D01*
X128864694Y-91256610D01*
X128970940Y-91097600D01*
X128970940Y-91097599D01*
X128970941Y-91097598D01*
X129050130Y-90906420D01*
X129090500Y-90703465D01*
X129090500Y-90496535D01*
X129050130Y-90293580D01*
X128970941Y-90102402D01*
X128931990Y-90044108D01*
X128925308Y-90034108D01*
X141669500Y-90034108D01*
X141669500Y-90165892D01*
X141681814Y-90211848D01*
X141703608Y-90293187D01*
X141709382Y-90303187D01*
X141769500Y-90407314D01*
X141862686Y-90500500D01*
X141976814Y-90566392D01*
X142104108Y-90600500D01*
X142104110Y-90600500D01*
X142194167Y-90600500D01*
X142261206Y-90620185D01*
X142281848Y-90636819D01*
X144695489Y-93050460D01*
X144764012Y-93090022D01*
X144840438Y-93110500D01*
X144951324Y-93110500D01*
X145018363Y-93130185D01*
X145039005Y-93146819D01*
X145102686Y-93210500D01*
X145216814Y-93276392D01*
X145344108Y-93310500D01*
X145344110Y-93310500D01*
X145475890Y-93310500D01*
X145475892Y-93310500D01*
X145603186Y-93276392D01*
X145717314Y-93210500D01*
X145810500Y-93117314D01*
X145876392Y-93003186D01*
X145910500Y-92875892D01*
X145910500Y-92744108D01*
X145876392Y-92616814D01*
X145810500Y-92502686D01*
X145717314Y-92409500D01*
X145660250Y-92376554D01*
X145603187Y-92343608D01*
X145539539Y-92326554D01*
X145475892Y-92309500D01*
X145344108Y-92309500D01*
X145216812Y-92343608D01*
X145102686Y-92409500D01*
X145091257Y-92420929D01*
X145029933Y-92454412D01*
X144960241Y-92449426D01*
X144915897Y-92420926D01*
X142706819Y-90211848D01*
X142673334Y-90150525D01*
X142670500Y-90124167D01*
X142670500Y-90034110D01*
X142670500Y-90034108D01*
X142636392Y-89906814D01*
X142570500Y-89792686D01*
X142477314Y-89699500D01*
X142420250Y-89666554D01*
X142363187Y-89633608D01*
X142299539Y-89616554D01*
X142235892Y-89599500D01*
X142104108Y-89599500D01*
X141976812Y-89633608D01*
X141862686Y-89699500D01*
X141862683Y-89699502D01*
X141769502Y-89792683D01*
X141769500Y-89792686D01*
X141703608Y-89906812D01*
X141669500Y-90034108D01*
X128925308Y-90034108D01*
X128855980Y-89930349D01*
X128855974Y-89930341D01*
X128709657Y-89784024D01*
X128583156Y-89699500D01*
X128537598Y-89669059D01*
X128476154Y-89643608D01*
X128346420Y-89589870D01*
X128346412Y-89589868D01*
X128143469Y-89549500D01*
X128143465Y-89549500D01*
X127936535Y-89549500D01*
X127936530Y-89549500D01*
X127733587Y-89589868D01*
X127733579Y-89589870D01*
X127542403Y-89669058D01*
X127370342Y-89784024D01*
X127224024Y-89930342D01*
X127109058Y-90102403D01*
X127029870Y-90293579D01*
X127029868Y-90293587D01*
X126989500Y-90496530D01*
X126989500Y-90703469D01*
X127029868Y-90906412D01*
X127029870Y-90906420D01*
X127109059Y-91097599D01*
X127109059Y-91097600D01*
X127215306Y-91256610D01*
X127236184Y-91323287D01*
X127217699Y-91390667D01*
X127165720Y-91437357D01*
X127112204Y-91449500D01*
X126614500Y-91449500D01*
X126547461Y-91429815D01*
X126501706Y-91377011D01*
X126490500Y-91325500D01*
X126490500Y-87956530D01*
X126989500Y-87956530D01*
X126989500Y-88163469D01*
X127029868Y-88366412D01*
X127029870Y-88366420D01*
X127109058Y-88557596D01*
X127224024Y-88729657D01*
X127370342Y-88875975D01*
X127370345Y-88875977D01*
X127542402Y-88990941D01*
X127733580Y-89070130D01*
X127936530Y-89110499D01*
X127936534Y-89110500D01*
X127936535Y-89110500D01*
X128143466Y-89110500D01*
X128143467Y-89110499D01*
X128346420Y-89070130D01*
X128537598Y-88990941D01*
X128709655Y-88875977D01*
X128855977Y-88729655D01*
X128970941Y-88557598D01*
X129050130Y-88366420D01*
X129090500Y-88163465D01*
X129090500Y-87956535D01*
X129050130Y-87753580D01*
X128970941Y-87562402D01*
X128855977Y-87390345D01*
X128855975Y-87390342D01*
X128709655Y-87244022D01*
X128672330Y-87219083D01*
X128598439Y-87169711D01*
X128537598Y-87129059D01*
X128525650Y-87124110D01*
X128525645Y-87124108D01*
X131039500Y-87124108D01*
X131039500Y-87255891D01*
X131073608Y-87383187D01*
X131077741Y-87390345D01*
X131139500Y-87497314D01*
X131232686Y-87590500D01*
X131346814Y-87656392D01*
X131474108Y-87690500D01*
X131474110Y-87690500D01*
X131605890Y-87690500D01*
X131605892Y-87690500D01*
X131733186Y-87656392D01*
X131847314Y-87590500D01*
X131940500Y-87497314D01*
X132006392Y-87383186D01*
X132040500Y-87255892D01*
X132040500Y-87124108D01*
X132006392Y-86996814D01*
X131940500Y-86882686D01*
X131847314Y-86789500D01*
X131790250Y-86756554D01*
X131733187Y-86723608D01*
X131669539Y-86706554D01*
X131605892Y-86689500D01*
X131474108Y-86689500D01*
X131346812Y-86723608D01*
X131232686Y-86789500D01*
X131232683Y-86789502D01*
X131139502Y-86882683D01*
X131139500Y-86882686D01*
X131073608Y-86996812D01*
X131039500Y-87124108D01*
X128525645Y-87124108D01*
X128346420Y-87049870D01*
X128346412Y-87049868D01*
X128143469Y-87009500D01*
X128143465Y-87009500D01*
X127936535Y-87009500D01*
X127936530Y-87009500D01*
X127733587Y-87049868D01*
X127733579Y-87049870D01*
X127542403Y-87129058D01*
X127370342Y-87244024D01*
X127224024Y-87390342D01*
X127109058Y-87562403D01*
X127029870Y-87753579D01*
X127029868Y-87753587D01*
X126989500Y-87956530D01*
X126490500Y-87956530D01*
X126490500Y-85416530D01*
X126989500Y-85416530D01*
X126989500Y-85623469D01*
X127029868Y-85826412D01*
X127029870Y-85826420D01*
X127058853Y-85896392D01*
X127109059Y-86017598D01*
X127157102Y-86089500D01*
X127224024Y-86189657D01*
X127370342Y-86335975D01*
X127370345Y-86335977D01*
X127542402Y-86450941D01*
X127733580Y-86530130D01*
X127913067Y-86565832D01*
X127936530Y-86570499D01*
X127936534Y-86570500D01*
X127936535Y-86570500D01*
X128143466Y-86570500D01*
X128143467Y-86570499D01*
X128346420Y-86530130D01*
X128537598Y-86450941D01*
X128709655Y-86335977D01*
X128855977Y-86189655D01*
X128970941Y-86017598D01*
X129050130Y-85826420D01*
X129090500Y-85623465D01*
X129090500Y-85416535D01*
X129050130Y-85213580D01*
X128970941Y-85022402D01*
X128855977Y-84850345D01*
X128855975Y-84850342D01*
X128709657Y-84704024D01*
X128573707Y-84613186D01*
X128537598Y-84589059D01*
X128527422Y-84584844D01*
X128346420Y-84509870D01*
X128346412Y-84509868D01*
X128143469Y-84469500D01*
X128143465Y-84469500D01*
X127936535Y-84469500D01*
X127936530Y-84469500D01*
X127733587Y-84509868D01*
X127733579Y-84509870D01*
X127542403Y-84589058D01*
X127370342Y-84704024D01*
X127224024Y-84850342D01*
X127109058Y-85022403D01*
X127029870Y-85213579D01*
X127029868Y-85213587D01*
X126989500Y-85416530D01*
X126490500Y-85416530D01*
X126490500Y-84354108D01*
X130319500Y-84354108D01*
X130319500Y-84485892D01*
X130323414Y-84500499D01*
X130353608Y-84613187D01*
X130368800Y-84639500D01*
X130419500Y-84727314D01*
X130512686Y-84820500D01*
X130626814Y-84886392D01*
X130754108Y-84920500D01*
X130754110Y-84920500D01*
X130885890Y-84920500D01*
X130885892Y-84920500D01*
X131013186Y-84886392D01*
X131127314Y-84820500D01*
X131220500Y-84727314D01*
X131286392Y-84613186D01*
X131320500Y-84485892D01*
X131320500Y-84354108D01*
X131286392Y-84226814D01*
X131220500Y-84112686D01*
X131127314Y-84019500D01*
X131017527Y-83956114D01*
X131013187Y-83953608D01*
X130949539Y-83936554D01*
X130885892Y-83919500D01*
X130754108Y-83919500D01*
X130626812Y-83953608D01*
X130512686Y-84019500D01*
X130512683Y-84019502D01*
X130419502Y-84112683D01*
X130419500Y-84112686D01*
X130353608Y-84226812D01*
X130327924Y-84322669D01*
X130319500Y-84354108D01*
X126490500Y-84354108D01*
X126490500Y-82876530D01*
X126989500Y-82876530D01*
X126989500Y-83083469D01*
X127029868Y-83286412D01*
X127029870Y-83286420D01*
X127109059Y-83477598D01*
X127137725Y-83520500D01*
X127224024Y-83649657D01*
X127370342Y-83795975D01*
X127370345Y-83795977D01*
X127542402Y-83910941D01*
X127733580Y-83990130D01*
X127936530Y-84030499D01*
X127936534Y-84030500D01*
X127936535Y-84030500D01*
X128143466Y-84030500D01*
X128143467Y-84030499D01*
X128346420Y-83990130D01*
X128537598Y-83910941D01*
X128709655Y-83795977D01*
X128855977Y-83649655D01*
X128970941Y-83477598D01*
X129050130Y-83286420D01*
X129090500Y-83083465D01*
X129090500Y-82876535D01*
X129050130Y-82673580D01*
X128970941Y-82482402D01*
X128855977Y-82310345D01*
X128855975Y-82310342D01*
X128709657Y-82164024D01*
X128605019Y-82094108D01*
X128537598Y-82049059D01*
X128508031Y-82036812D01*
X128346420Y-81969870D01*
X128346412Y-81969868D01*
X128143469Y-81929500D01*
X128143465Y-81929500D01*
X127936535Y-81929500D01*
X127936530Y-81929500D01*
X127733587Y-81969868D01*
X127733579Y-81969870D01*
X127542403Y-82049058D01*
X127370342Y-82164024D01*
X127224024Y-82310342D01*
X127109058Y-82482403D01*
X127029870Y-82673579D01*
X127029868Y-82673587D01*
X126989500Y-82876530D01*
X126490500Y-82876530D01*
X126490500Y-80864500D01*
X126510185Y-80797461D01*
X126562989Y-80751706D01*
X126614500Y-80740500D01*
X126944564Y-80740500D01*
X127011603Y-80760185D01*
X127057358Y-80812989D01*
X127059121Y-80817039D01*
X127109059Y-80937598D01*
X127166541Y-81023626D01*
X127224024Y-81109657D01*
X127370342Y-81255975D01*
X127370345Y-81255977D01*
X127542402Y-81370941D01*
X127733580Y-81450130D01*
X127936530Y-81490499D01*
X127936534Y-81490500D01*
X127936535Y-81490500D01*
X128143466Y-81490500D01*
X128143467Y-81490499D01*
X128346420Y-81450130D01*
X128537598Y-81370941D01*
X128709655Y-81255977D01*
X128855977Y-81109655D01*
X128970941Y-80937598D01*
X129050130Y-80746420D01*
X129090500Y-80543465D01*
X129090500Y-80336535D01*
X129050130Y-80133580D01*
X128970941Y-79942402D01*
X128855977Y-79770345D01*
X128855975Y-79770342D01*
X128709657Y-79624024D01*
X128604892Y-79554023D01*
X128537598Y-79509059D01*
X128525411Y-79504011D01*
X128346420Y-79429870D01*
X128346412Y-79429868D01*
X128143469Y-79389500D01*
X128143465Y-79389500D01*
X127936535Y-79389500D01*
X127936530Y-79389500D01*
X127733587Y-79429868D01*
X127733579Y-79429870D01*
X127542403Y-79509058D01*
X127370342Y-79624024D01*
X127224024Y-79770342D01*
X127109058Y-79942403D01*
X127059125Y-80062953D01*
X127015284Y-80117356D01*
X126948990Y-80139421D01*
X126944564Y-80139500D01*
X126140438Y-80139500D01*
X126084499Y-80154488D01*
X126014651Y-80152826D01*
X125956789Y-80113664D01*
X125929284Y-80049436D01*
X125928410Y-80033914D01*
X125964155Y-74490247D01*
X126989500Y-74490247D01*
X126989500Y-76229752D01*
X127001131Y-76288229D01*
X127001132Y-76288230D01*
X127045447Y-76354552D01*
X127111769Y-76398867D01*
X127111770Y-76398868D01*
X127170247Y-76410499D01*
X127170250Y-76410500D01*
X127170252Y-76410500D01*
X127680705Y-76410500D01*
X127747744Y-76430185D01*
X127788093Y-76472502D01*
X127799537Y-76492325D01*
X127799539Y-76492328D01*
X127799540Y-76492329D01*
X131007671Y-79700460D01*
X131007674Y-79700462D01*
X131014120Y-79705408D01*
X131013313Y-79706458D01*
X131055714Y-79750925D01*
X131069500Y-79807748D01*
X131069500Y-83429562D01*
X131083152Y-83480513D01*
X131089979Y-83505990D01*
X131089980Y-83505991D01*
X131109868Y-83540438D01*
X131109869Y-83540439D01*
X131129539Y-83574509D01*
X131129541Y-83574512D01*
X131553181Y-83998152D01*
X131586666Y-84059475D01*
X131589500Y-84085833D01*
X131589500Y-84119309D01*
X131620201Y-84233886D01*
X131679511Y-84336613D01*
X131763387Y-84420489D01*
X131866114Y-84479799D01*
X131980691Y-84510500D01*
X131980694Y-84510500D01*
X132099306Y-84510500D01*
X132099309Y-84510500D01*
X132213886Y-84479799D01*
X132316613Y-84420489D01*
X132400489Y-84336613D01*
X132459799Y-84233886D01*
X132490500Y-84119309D01*
X132490500Y-84070691D01*
X133659500Y-84070691D01*
X133659500Y-84189309D01*
X133690201Y-84303886D01*
X133749511Y-84406613D01*
X133833387Y-84490489D01*
X133936114Y-84549799D01*
X134050691Y-84580500D01*
X134050694Y-84580500D01*
X134169306Y-84580500D01*
X134169309Y-84580500D01*
X134283886Y-84549799D01*
X134386613Y-84490489D01*
X134470489Y-84406613D01*
X134529799Y-84303886D01*
X134560500Y-84189309D01*
X134560500Y-84155833D01*
X134580185Y-84088794D01*
X134596819Y-84068152D01*
X135108152Y-83556819D01*
X135169475Y-83523334D01*
X135195833Y-83520500D01*
X138398773Y-83520500D01*
X138465812Y-83540185D01*
X138511567Y-83592989D01*
X138521511Y-83662147D01*
X138492486Y-83725703D01*
X138450915Y-83755678D01*
X138451051Y-83755914D01*
X138448733Y-83757252D01*
X138446222Y-83759063D01*
X138444010Y-83759979D01*
X138375489Y-83799540D01*
X138375486Y-83799542D01*
X136121847Y-86053181D01*
X136060524Y-86086666D01*
X136034166Y-86089500D01*
X135944108Y-86089500D01*
X135816812Y-86123608D01*
X135702686Y-86189500D01*
X135702683Y-86189502D01*
X135609502Y-86282683D01*
X135609500Y-86282686D01*
X135543608Y-86396812D01*
X135509500Y-86524108D01*
X135509500Y-86655891D01*
X135543608Y-86783187D01*
X135576554Y-86840250D01*
X135609500Y-86897314D01*
X135702686Y-86990500D01*
X135816814Y-87056392D01*
X135944108Y-87090500D01*
X135944110Y-87090500D01*
X136075890Y-87090500D01*
X136075892Y-87090500D01*
X136203186Y-87056392D01*
X136317314Y-86990500D01*
X136410500Y-86897314D01*
X136476392Y-86783186D01*
X136510500Y-86655892D01*
X136510500Y-86565832D01*
X136530185Y-86498793D01*
X136546819Y-86478151D01*
X137592284Y-85432686D01*
X138172560Y-84852410D01*
X138233882Y-84818926D01*
X138303574Y-84823910D01*
X138359507Y-84865782D01*
X138383924Y-84931246D01*
X138380017Y-84972178D01*
X138379500Y-84974105D01*
X138379500Y-85105891D01*
X138413608Y-85233187D01*
X138436946Y-85273608D01*
X138479500Y-85347314D01*
X138572686Y-85440500D01*
X138686814Y-85506392D01*
X138814108Y-85540500D01*
X138814110Y-85540500D01*
X138945890Y-85540500D01*
X138945892Y-85540500D01*
X139073186Y-85506392D01*
X139187314Y-85440500D01*
X139250995Y-85376819D01*
X139277922Y-85362115D01*
X139303741Y-85345523D01*
X139309941Y-85344631D01*
X139312318Y-85343334D01*
X139338676Y-85340500D01*
X139474167Y-85340500D01*
X139541206Y-85360185D01*
X139561848Y-85376819D01*
X139813181Y-85628152D01*
X139846666Y-85689475D01*
X139849500Y-85715833D01*
X139849500Y-85805892D01*
X139856094Y-85830500D01*
X139883608Y-85933187D01*
X139903027Y-85966821D01*
X139949500Y-86047314D01*
X140042686Y-86140500D01*
X140156814Y-86206392D01*
X140284108Y-86240500D01*
X140284110Y-86240500D01*
X140415890Y-86240500D01*
X140415892Y-86240500D01*
X140543186Y-86206392D01*
X140657314Y-86140500D01*
X140720995Y-86076819D01*
X140782318Y-86043334D01*
X140808676Y-86040500D01*
X141119560Y-86040500D01*
X141119562Y-86040500D01*
X141195989Y-86020021D01*
X141264511Y-85980460D01*
X141278150Y-85966820D01*
X141339472Y-85933334D01*
X141365833Y-85930500D01*
X141455890Y-85930500D01*
X141455892Y-85930500D01*
X141583186Y-85896392D01*
X141697314Y-85830500D01*
X141760995Y-85766819D01*
X141822318Y-85733334D01*
X141848676Y-85730500D01*
X142559560Y-85730500D01*
X142559562Y-85730500D01*
X142635989Y-85710021D01*
X142704511Y-85670460D01*
X142760460Y-85614511D01*
X142838152Y-85536819D01*
X142899475Y-85503334D01*
X142925833Y-85500500D01*
X142959306Y-85500500D01*
X142959309Y-85500500D01*
X143073886Y-85469799D01*
X143176613Y-85410489D01*
X143260489Y-85326613D01*
X143319799Y-85223886D01*
X143350500Y-85109309D01*
X143350500Y-84990691D01*
X143319799Y-84876114D01*
X143260489Y-84773387D01*
X143247308Y-84760206D01*
X143213823Y-84698883D01*
X143218807Y-84629191D01*
X143247306Y-84584846D01*
X143798044Y-84034108D01*
X145209500Y-84034108D01*
X145209500Y-84165891D01*
X145243608Y-84293187D01*
X145268680Y-84336612D01*
X145309500Y-84407314D01*
X145402686Y-84500500D01*
X145516814Y-84566392D01*
X145644108Y-84600500D01*
X145644110Y-84600500D01*
X145775890Y-84600500D01*
X145775892Y-84600500D01*
X145903186Y-84566392D01*
X146017314Y-84500500D01*
X146080995Y-84436819D01*
X146142318Y-84403334D01*
X146168676Y-84400500D01*
X146534167Y-84400500D01*
X146601206Y-84420185D01*
X146621848Y-84436819D01*
X149843181Y-87658152D01*
X149876666Y-87719475D01*
X149879500Y-87745833D01*
X149879500Y-93801323D01*
X149859815Y-93868362D01*
X149843182Y-93889004D01*
X149779500Y-93952686D01*
X149713608Y-94066812D01*
X149691452Y-94149502D01*
X149679500Y-94194108D01*
X149679500Y-94325892D01*
X149696554Y-94389539D01*
X149713608Y-94453187D01*
X149731461Y-94484108D01*
X149779500Y-94567314D01*
X149872686Y-94660500D01*
X149986814Y-94726392D01*
X150114108Y-94760500D01*
X150114110Y-94760500D01*
X150245890Y-94760500D01*
X150245892Y-94760500D01*
X150373186Y-94726392D01*
X150487314Y-94660500D01*
X150580500Y-94567314D01*
X150646392Y-94453186D01*
X150680500Y-94325892D01*
X150680500Y-94194108D01*
X150646392Y-94066814D01*
X150580500Y-93952686D01*
X150516818Y-93889004D01*
X150483334Y-93827680D01*
X150480500Y-93801323D01*
X150480500Y-92966530D01*
X151989500Y-92966530D01*
X151989500Y-93173469D01*
X152029868Y-93376412D01*
X152029870Y-93376420D01*
X152109058Y-93567596D01*
X152224024Y-93739657D01*
X152370342Y-93885975D01*
X152370345Y-93885977D01*
X152542402Y-94000941D01*
X152733580Y-94080130D01*
X152936530Y-94120499D01*
X152936534Y-94120500D01*
X152936535Y-94120500D01*
X153143466Y-94120500D01*
X153143467Y-94120499D01*
X153346420Y-94080130D01*
X153537598Y-94000941D01*
X153709655Y-93885977D01*
X153855977Y-93739655D01*
X153970941Y-93567598D01*
X154050130Y-93376420D01*
X154090500Y-93173465D01*
X154090500Y-92966535D01*
X154050130Y-92763580D01*
X153970941Y-92572402D01*
X153855977Y-92400345D01*
X153855975Y-92400342D01*
X153709657Y-92254024D01*
X153560954Y-92154665D01*
X153537598Y-92139059D01*
X153503461Y-92124919D01*
X153346420Y-92059870D01*
X153346412Y-92059868D01*
X153143469Y-92019500D01*
X153143465Y-92019500D01*
X152936535Y-92019500D01*
X152936530Y-92019500D01*
X152733587Y-92059868D01*
X152733579Y-92059870D01*
X152542403Y-92139058D01*
X152370342Y-92254024D01*
X152224024Y-92400342D01*
X152109058Y-92572403D01*
X152029870Y-92763579D01*
X152029868Y-92763587D01*
X151989500Y-92966530D01*
X150480500Y-92966530D01*
X150480500Y-90044108D01*
X150789500Y-90044108D01*
X150789500Y-90175891D01*
X150823608Y-90303187D01*
X150856554Y-90360250D01*
X150889500Y-90417314D01*
X150982686Y-90510500D01*
X151096814Y-90576392D01*
X151224108Y-90610500D01*
X151224110Y-90610500D01*
X151355890Y-90610500D01*
X151355892Y-90610500D01*
X151483186Y-90576392D01*
X151597314Y-90510500D01*
X151690500Y-90417314D01*
X151756392Y-90303186D01*
X151790500Y-90175892D01*
X151790500Y-90044108D01*
X151756392Y-89916814D01*
X151750618Y-89906814D01*
X151747563Y-89901521D01*
X151690500Y-89802686D01*
X151597314Y-89709500D01*
X151540250Y-89676554D01*
X151483187Y-89643608D01*
X151417953Y-89626129D01*
X151355892Y-89609500D01*
X151224108Y-89609500D01*
X151096812Y-89643608D01*
X150982686Y-89709500D01*
X150982683Y-89709502D01*
X150889502Y-89802683D01*
X150889500Y-89802686D01*
X150823608Y-89916812D01*
X150789500Y-90044108D01*
X150480500Y-90044108D01*
X150480500Y-87886530D01*
X151989500Y-87886530D01*
X151989500Y-88093469D01*
X152029868Y-88296412D01*
X152029870Y-88296420D01*
X152109058Y-88487596D01*
X152224024Y-88659657D01*
X152370342Y-88805975D01*
X152370345Y-88805977D01*
X152542402Y-88920941D01*
X152733580Y-89000130D01*
X152936530Y-89040499D01*
X152936534Y-89040500D01*
X152936535Y-89040500D01*
X153143466Y-89040500D01*
X153143467Y-89040499D01*
X153346420Y-89000130D01*
X153537598Y-88920941D01*
X153709655Y-88805977D01*
X153855977Y-88659655D01*
X153970941Y-88487598D01*
X154050130Y-88296420D01*
X154090500Y-88093465D01*
X154090500Y-87886535D01*
X154050130Y-87683580D01*
X153970941Y-87492402D01*
X153855977Y-87320345D01*
X153855975Y-87320342D01*
X153709657Y-87174024D01*
X153584653Y-87090500D01*
X153537598Y-87059059D01*
X153531159Y-87056392D01*
X153346420Y-86979870D01*
X153346412Y-86979868D01*
X153143469Y-86939500D01*
X153143465Y-86939500D01*
X152936535Y-86939500D01*
X152936530Y-86939500D01*
X152733587Y-86979868D01*
X152733579Y-86979870D01*
X152542403Y-87059058D01*
X152370342Y-87174024D01*
X152224024Y-87320342D01*
X152109058Y-87492403D01*
X152029870Y-87683579D01*
X152029868Y-87683587D01*
X151989500Y-87886530D01*
X150480500Y-87886530D01*
X150480500Y-87530439D01*
X150480500Y-87530438D01*
X150460021Y-87454011D01*
X150423262Y-87390342D01*
X150420464Y-87385495D01*
X150420458Y-87385487D01*
X148259079Y-85224108D01*
X150939500Y-85224108D01*
X150939500Y-85355892D01*
X150945107Y-85376819D01*
X150973608Y-85483187D01*
X150998797Y-85526814D01*
X151039500Y-85597314D01*
X151132686Y-85690500D01*
X151246814Y-85756392D01*
X151374108Y-85790500D01*
X151374110Y-85790500D01*
X151505890Y-85790500D01*
X151505892Y-85790500D01*
X151633186Y-85756392D01*
X151747314Y-85690500D01*
X151808017Y-85629796D01*
X151869336Y-85596314D01*
X151939028Y-85601298D01*
X151994962Y-85643169D01*
X152017312Y-85693289D01*
X152029868Y-85756412D01*
X152029870Y-85756420D01*
X152103150Y-85933334D01*
X152109059Y-85947598D01*
X152166541Y-86033626D01*
X152224024Y-86119657D01*
X152370342Y-86265975D01*
X152370345Y-86265977D01*
X152542402Y-86380941D01*
X152733580Y-86460130D01*
X152927953Y-86498793D01*
X152936530Y-86500499D01*
X152936534Y-86500500D01*
X152936535Y-86500500D01*
X153143466Y-86500500D01*
X153143467Y-86500499D01*
X153346420Y-86460130D01*
X153537598Y-86380941D01*
X153709655Y-86265977D01*
X153855977Y-86119655D01*
X153970941Y-85947598D01*
X153976850Y-85933334D01*
X154026313Y-85813919D01*
X154032675Y-85798559D01*
X154076515Y-85744157D01*
X154142809Y-85722092D01*
X154210508Y-85739371D01*
X154258119Y-85790508D01*
X154267009Y-85813916D01*
X154293608Y-85913186D01*
X154359500Y-86027314D01*
X154452686Y-86120500D01*
X154566814Y-86186392D01*
X154694108Y-86220500D01*
X154694110Y-86220500D01*
X154825890Y-86220500D01*
X154825892Y-86220500D01*
X154953186Y-86186392D01*
X155067314Y-86120500D01*
X155160500Y-86027314D01*
X155226392Y-85913186D01*
X155260500Y-85785892D01*
X155260500Y-85654108D01*
X155226392Y-85526814D01*
X155160500Y-85412686D01*
X155067314Y-85319500D01*
X154987827Y-85273608D01*
X154953187Y-85253608D01*
X154866900Y-85230488D01*
X154825892Y-85219500D01*
X154694108Y-85219500D01*
X154566812Y-85253608D01*
X154452686Y-85319500D01*
X154452683Y-85319502D01*
X154359502Y-85412683D01*
X154359500Y-85412686D01*
X154321887Y-85477833D01*
X154271319Y-85526048D01*
X154202712Y-85539270D01*
X154137847Y-85513302D01*
X154097319Y-85456387D01*
X154090500Y-85415832D01*
X154090500Y-85346534D01*
X154090499Y-85346530D01*
X154071890Y-85252975D01*
X154050130Y-85143580D01*
X153970941Y-84952402D01*
X153855977Y-84780345D01*
X153855975Y-84780342D01*
X153709657Y-84634024D01*
X153560403Y-84534297D01*
X153537598Y-84519059D01*
X153511172Y-84508113D01*
X153346420Y-84439870D01*
X153346412Y-84439868D01*
X153143469Y-84399500D01*
X153143465Y-84399500D01*
X152936535Y-84399500D01*
X152936530Y-84399500D01*
X152733587Y-84439868D01*
X152733579Y-84439870D01*
X152542403Y-84519058D01*
X152370342Y-84634024D01*
X152224024Y-84780342D01*
X152109057Y-84952404D01*
X152085792Y-85008572D01*
X152041950Y-85062976D01*
X151975656Y-85085040D01*
X151907957Y-85067760D01*
X151863844Y-85023119D01*
X151855445Y-85008572D01*
X151840500Y-84982686D01*
X151747314Y-84889500D01*
X151673380Y-84846814D01*
X151633187Y-84823608D01*
X151569539Y-84806554D01*
X151505892Y-84789500D01*
X151374108Y-84789500D01*
X151246812Y-84823608D01*
X151132686Y-84889500D01*
X151132683Y-84889502D01*
X151039502Y-84982683D01*
X151039500Y-84982686D01*
X150973608Y-85096812D01*
X150946807Y-85196836D01*
X150939500Y-85224108D01*
X148259079Y-85224108D01*
X146894512Y-83859541D01*
X146894507Y-83859537D01*
X146885065Y-83854086D01*
X146885064Y-83854086D01*
X146883853Y-83853387D01*
X146825991Y-83819980D01*
X146825990Y-83819979D01*
X146800513Y-83813152D01*
X146749562Y-83799500D01*
X146749560Y-83799500D01*
X146168676Y-83799500D01*
X146101637Y-83779815D01*
X146080995Y-83763181D01*
X146017316Y-83699502D01*
X146017314Y-83699500D01*
X145952617Y-83662147D01*
X145903187Y-83633608D01*
X145839539Y-83616554D01*
X145775892Y-83599500D01*
X145644108Y-83599500D01*
X145516812Y-83633608D01*
X145402686Y-83699500D01*
X145402683Y-83699502D01*
X145309502Y-83792683D01*
X145309500Y-83792686D01*
X145243608Y-83906812D01*
X145209500Y-84034108D01*
X143798044Y-84034108D01*
X145363495Y-82468657D01*
X145424816Y-82435174D01*
X145494508Y-82440158D01*
X145550441Y-82482030D01*
X145558560Y-82494339D01*
X145619150Y-82599283D01*
X145712336Y-82692469D01*
X145811171Y-82749532D01*
X145825334Y-82757709D01*
X145826464Y-82758361D01*
X145953758Y-82792469D01*
X145953760Y-82792469D01*
X146085540Y-82792469D01*
X146085542Y-82792469D01*
X146212836Y-82758361D01*
X146326964Y-82692469D01*
X146420150Y-82599283D01*
X146486042Y-82485155D01*
X146520150Y-82357861D01*
X146520150Y-82226077D01*
X146486042Y-82098783D01*
X146420150Y-81984655D01*
X146326964Y-81891469D01*
X146222020Y-81830879D01*
X146173805Y-81780313D01*
X146160582Y-81711706D01*
X146186550Y-81646841D01*
X146196332Y-81635820D01*
X147333044Y-80499108D01*
X149614358Y-80499108D01*
X149614358Y-80630891D01*
X149648466Y-80758187D01*
X149649620Y-80760185D01*
X149714358Y-80872314D01*
X149807544Y-80965500D01*
X149921672Y-81031392D01*
X150048966Y-81065500D01*
X150048968Y-81065500D01*
X150180748Y-81065500D01*
X150180750Y-81065500D01*
X150308044Y-81031392D01*
X150422172Y-80965500D01*
X150515358Y-80872314D01*
X150581250Y-80758186D01*
X150615358Y-80630892D01*
X150615358Y-80499108D01*
X150581250Y-80371814D01*
X150520464Y-80266530D01*
X151989500Y-80266530D01*
X151989500Y-80473469D01*
X152029868Y-80676412D01*
X152029870Y-80676420D01*
X152109059Y-80867598D01*
X152155830Y-80937596D01*
X152224024Y-81039657D01*
X152370342Y-81185975D01*
X152370345Y-81185977D01*
X152542402Y-81300941D01*
X152733580Y-81380130D01*
X152936530Y-81420499D01*
X152936534Y-81420500D01*
X152936535Y-81420500D01*
X153143466Y-81420500D01*
X153143467Y-81420499D01*
X153346420Y-81380130D01*
X153537598Y-81300941D01*
X153709655Y-81185977D01*
X153855977Y-81039655D01*
X153970941Y-80867598D01*
X154050130Y-80676420D01*
X154090500Y-80473465D01*
X154090500Y-80266535D01*
X154050130Y-80063580D01*
X153970941Y-79872402D01*
X153855977Y-79700345D01*
X153855975Y-79700342D01*
X153709657Y-79554024D01*
X153623626Y-79496541D01*
X153537598Y-79439059D01*
X153528979Y-79435489D01*
X153346420Y-79359870D01*
X153346412Y-79359868D01*
X153143469Y-79319500D01*
X153143465Y-79319500D01*
X152936535Y-79319500D01*
X152936530Y-79319500D01*
X152733587Y-79359868D01*
X152733579Y-79359870D01*
X152542403Y-79439058D01*
X152370342Y-79554024D01*
X152224024Y-79700342D01*
X152109058Y-79872403D01*
X152029870Y-80063579D01*
X152029868Y-80063587D01*
X151989500Y-80266530D01*
X150520464Y-80266530D01*
X150515358Y-80257686D01*
X150422172Y-80164500D01*
X150392111Y-80147144D01*
X150343897Y-80096577D01*
X150330675Y-80027970D01*
X150356643Y-79963105D01*
X150392114Y-79932371D01*
X150393606Y-79931509D01*
X150447316Y-79900500D01*
X150540502Y-79807314D01*
X150606394Y-79693186D01*
X150640502Y-79565892D01*
X150640502Y-79434108D01*
X150606394Y-79306814D01*
X150540502Y-79192686D01*
X150447316Y-79099500D01*
X150390252Y-79066554D01*
X150333189Y-79033608D01*
X150269541Y-79016554D01*
X150205894Y-78999500D01*
X150074110Y-78999500D01*
X149946814Y-79033608D01*
X149832688Y-79099500D01*
X149832685Y-79099502D01*
X149739504Y-79192683D01*
X149739502Y-79192686D01*
X149673610Y-79306812D01*
X149639502Y-79434108D01*
X149639502Y-79565891D01*
X149673610Y-79693187D01*
X149691862Y-79724800D01*
X149739502Y-79807314D01*
X149832688Y-79900500D01*
X149862746Y-79917854D01*
X149910962Y-79968421D01*
X149924185Y-80037028D01*
X149898217Y-80101893D01*
X149862747Y-80132627D01*
X149807550Y-80164495D01*
X149807541Y-80164502D01*
X149714360Y-80257683D01*
X149714358Y-80257686D01*
X149648466Y-80371812D01*
X149614358Y-80499108D01*
X147333044Y-80499108D01*
X149555190Y-78276961D01*
X149616511Y-78243478D01*
X149686203Y-78248462D01*
X149742136Y-78290334D01*
X149750255Y-78302642D01*
X149759530Y-78318706D01*
X149764500Y-78327314D01*
X149857686Y-78420500D01*
X149971814Y-78486392D01*
X150099108Y-78520500D01*
X150099110Y-78520500D01*
X150230890Y-78520500D01*
X150230892Y-78520500D01*
X150358186Y-78486392D01*
X150472314Y-78420500D01*
X150565500Y-78327314D01*
X150631392Y-78213186D01*
X150665500Y-78085892D01*
X150665500Y-77954108D01*
X150631392Y-77826814D01*
X150565500Y-77712686D01*
X150472314Y-77619500D01*
X150463706Y-77614530D01*
X150447642Y-77605255D01*
X150399427Y-77554687D01*
X150386206Y-77486080D01*
X150412175Y-77421215D01*
X150421954Y-77410197D01*
X151777820Y-76054331D01*
X151839142Y-76020848D01*
X151908834Y-76025832D01*
X151964767Y-76067704D01*
X151989184Y-76133168D01*
X151989500Y-76142014D01*
X151989500Y-76159752D01*
X152001131Y-76218229D01*
X152001132Y-76218230D01*
X152045447Y-76284552D01*
X152111769Y-76328867D01*
X152111770Y-76328868D01*
X152170247Y-76340499D01*
X152170250Y-76340500D01*
X152170252Y-76340500D01*
X153909750Y-76340500D01*
X153909751Y-76340499D01*
X153924568Y-76337552D01*
X153968229Y-76328868D01*
X153968229Y-76328867D01*
X153968231Y-76328867D01*
X154034552Y-76284552D01*
X154078867Y-76218231D01*
X154078867Y-76218229D01*
X154078868Y-76218229D01*
X154090499Y-76159752D01*
X154090500Y-76159750D01*
X154090500Y-74420249D01*
X154090499Y-74420247D01*
X154078868Y-74361770D01*
X154078867Y-74361769D01*
X154034552Y-74295447D01*
X153968230Y-74251132D01*
X153968229Y-74251131D01*
X153909752Y-74239500D01*
X153909748Y-74239500D01*
X152170252Y-74239500D01*
X152170247Y-74239500D01*
X152111770Y-74251131D01*
X152111769Y-74251132D01*
X152045447Y-74295447D01*
X152001132Y-74361769D01*
X152001131Y-74361770D01*
X151989500Y-74420247D01*
X151989500Y-74945138D01*
X151969815Y-75012177D01*
X151937725Y-75042781D01*
X151939116Y-75044594D01*
X151932670Y-75049539D01*
X142715489Y-84266722D01*
X142659541Y-84322669D01*
X142659535Y-84322677D01*
X142619982Y-84391186D01*
X142619979Y-84391191D01*
X142599500Y-84467621D01*
X142599500Y-84662036D01*
X142579815Y-84729075D01*
X142563181Y-84749717D01*
X142539513Y-84773384D01*
X142539511Y-84773387D01*
X142495081Y-84850342D01*
X142480201Y-84876114D01*
X142449500Y-84990691D01*
X142449500Y-84990693D01*
X142449500Y-85005500D01*
X142429815Y-85072539D01*
X142377011Y-85118294D01*
X142325500Y-85129500D01*
X141848676Y-85129500D01*
X141781637Y-85109815D01*
X141760995Y-85093181D01*
X141697316Y-85029502D01*
X141697314Y-85029500D01*
X141640250Y-84996554D01*
X141583187Y-84963608D01*
X141519539Y-84946554D01*
X141455892Y-84929500D01*
X141365833Y-84929500D01*
X141298794Y-84909815D01*
X141278152Y-84893181D01*
X139364512Y-82979541D01*
X139364504Y-82979535D01*
X139295995Y-82939982D01*
X139295990Y-82939979D01*
X139270513Y-82933152D01*
X139219562Y-82919500D01*
X139219560Y-82919500D01*
X135704832Y-82919500D01*
X135683586Y-82913261D01*
X135661498Y-82911682D01*
X135650714Y-82903609D01*
X135637793Y-82899815D01*
X135623293Y-82883081D01*
X135605565Y-82869810D01*
X135600857Y-82857189D01*
X135592038Y-82847011D01*
X135588886Y-82825093D01*
X135581148Y-82804346D01*
X135584010Y-82791185D01*
X135582094Y-82777853D01*
X135591293Y-82757709D01*
X135596000Y-82736073D01*
X135609268Y-82718347D01*
X135611119Y-82714297D01*
X135617151Y-82707819D01*
X135628151Y-82696819D01*
X135689474Y-82663334D01*
X135715832Y-82660500D01*
X135805890Y-82660500D01*
X135805892Y-82660500D01*
X135933186Y-82626392D01*
X136047314Y-82560500D01*
X136140500Y-82467314D01*
X136206392Y-82353186D01*
X136240500Y-82225892D01*
X136240500Y-82164108D01*
X139879500Y-82164108D01*
X139879500Y-82295891D01*
X139913608Y-82423187D01*
X139939862Y-82468659D01*
X139979500Y-82537314D01*
X140072686Y-82630500D01*
X140186814Y-82696392D01*
X140314108Y-82730500D01*
X140314110Y-82730500D01*
X140445890Y-82730500D01*
X140445892Y-82730500D01*
X140573186Y-82696392D01*
X140687314Y-82630500D01*
X140780500Y-82537314D01*
X140846392Y-82423186D01*
X140880500Y-82295892D01*
X140880500Y-82164108D01*
X140846392Y-82036814D01*
X140780500Y-81922686D01*
X140687314Y-81829500D01*
X140602120Y-81780313D01*
X140573187Y-81763608D01*
X140509539Y-81746554D01*
X140445892Y-81729500D01*
X140314108Y-81729500D01*
X140186812Y-81763608D01*
X140072686Y-81829500D01*
X140072683Y-81829502D01*
X139979502Y-81922683D01*
X139979500Y-81922686D01*
X139913608Y-82036812D01*
X139879500Y-82164108D01*
X136240500Y-82164108D01*
X136240500Y-82094108D01*
X136206392Y-81966814D01*
X136140500Y-81852686D01*
X136047314Y-81759500D01*
X135964533Y-81711706D01*
X135933187Y-81693608D01*
X135869539Y-81676554D01*
X135805892Y-81659500D01*
X135674108Y-81659500D01*
X135546812Y-81693608D01*
X135432686Y-81759500D01*
X135432683Y-81759502D01*
X135339502Y-81852683D01*
X135339500Y-81852686D01*
X135273608Y-81966812D01*
X135239500Y-82094108D01*
X135239500Y-82184166D01*
X135219815Y-82251205D01*
X135203181Y-82271847D01*
X134135489Y-83339540D01*
X134079541Y-83395487D01*
X134079535Y-83395495D01*
X134039982Y-83464004D01*
X134039979Y-83464009D01*
X134019500Y-83540438D01*
X134019500Y-83592807D01*
X133999815Y-83659846D01*
X133947011Y-83705601D01*
X133942952Y-83707368D01*
X133936118Y-83710198D01*
X133833387Y-83769511D01*
X133833384Y-83769513D01*
X133749513Y-83853384D01*
X133749511Y-83853387D01*
X133690201Y-83956114D01*
X133659500Y-84070691D01*
X132490500Y-84070691D01*
X132490500Y-84000691D01*
X132459799Y-83886114D01*
X132400489Y-83783387D01*
X132316613Y-83699511D01*
X132213886Y-83640201D01*
X132099309Y-83609500D01*
X132099306Y-83609500D01*
X132065833Y-83609500D01*
X131998794Y-83589815D01*
X131978152Y-83573181D01*
X131706819Y-83301848D01*
X131673334Y-83240525D01*
X131670500Y-83214167D01*
X131670500Y-79580439D01*
X131666602Y-79565891D01*
X131650021Y-79504011D01*
X131647550Y-79499731D01*
X131631078Y-79431834D01*
X131653930Y-79365807D01*
X131692937Y-79330347D01*
X131727314Y-79310500D01*
X131820500Y-79217314D01*
X131886392Y-79103186D01*
X131920500Y-78975892D01*
X131920500Y-78844108D01*
X131886392Y-78716814D01*
X131820500Y-78602686D01*
X131727314Y-78509500D01*
X131670250Y-78476554D01*
X131613187Y-78443608D01*
X131526941Y-78420499D01*
X131485892Y-78409500D01*
X131354108Y-78409500D01*
X131226812Y-78443608D01*
X131112686Y-78509500D01*
X131112683Y-78509502D01*
X131019502Y-78602683D01*
X131019500Y-78602686D01*
X131005257Y-78627356D01*
X130954689Y-78675571D01*
X130886082Y-78688793D01*
X130821217Y-78662825D01*
X130810189Y-78653036D01*
X129541259Y-77384106D01*
X130919500Y-77384106D01*
X130919500Y-77515890D01*
X130929896Y-77554687D01*
X130953608Y-77643185D01*
X130986554Y-77700248D01*
X131019500Y-77757312D01*
X131112686Y-77850498D01*
X131226814Y-77916390D01*
X131354108Y-77950498D01*
X131354110Y-77950498D01*
X131485890Y-77950498D01*
X131485892Y-77950498D01*
X131613186Y-77916390D01*
X131727314Y-77850498D01*
X131820500Y-77757312D01*
X131886392Y-77643184D01*
X131920500Y-77515890D01*
X131920500Y-77384106D01*
X131886392Y-77256812D01*
X131820500Y-77142684D01*
X131727314Y-77049498D01*
X131670250Y-77016552D01*
X131613187Y-76983606D01*
X131549539Y-76966552D01*
X131485892Y-76949498D01*
X131354108Y-76949498D01*
X131226812Y-76983606D01*
X131112686Y-77049498D01*
X131112683Y-77049500D01*
X131019502Y-77142681D01*
X131019500Y-77142684D01*
X130953608Y-77256810D01*
X130919500Y-77384106D01*
X129541259Y-77384106D01*
X128779334Y-76622181D01*
X128745849Y-76560858D01*
X128750833Y-76491166D01*
X128792705Y-76435233D01*
X128858169Y-76410816D01*
X128867015Y-76410500D01*
X128909750Y-76410500D01*
X128909751Y-76410499D01*
X128924568Y-76407552D01*
X128968229Y-76398868D01*
X128968229Y-76398867D01*
X128968231Y-76398867D01*
X129034552Y-76354552D01*
X129078867Y-76288231D01*
X129078867Y-76288229D01*
X129078868Y-76288229D01*
X129090499Y-76229752D01*
X129090500Y-76229750D01*
X129090500Y-75884106D01*
X130319500Y-75884106D01*
X130319500Y-76015890D01*
X130322164Y-76025832D01*
X130353608Y-76143185D01*
X130386554Y-76200248D01*
X130419500Y-76257312D01*
X130512686Y-76350498D01*
X130596465Y-76398868D01*
X130617159Y-76410816D01*
X130626814Y-76416390D01*
X130754108Y-76450498D01*
X130754110Y-76450498D01*
X130885890Y-76450498D01*
X130885892Y-76450498D01*
X131013186Y-76416390D01*
X131127314Y-76350498D01*
X131220500Y-76257312D01*
X131286392Y-76143184D01*
X131320500Y-76015890D01*
X131320500Y-75884106D01*
X131286392Y-75756812D01*
X131220500Y-75642684D01*
X131127314Y-75549498D01*
X131070250Y-75516552D01*
X131013187Y-75483606D01*
X130949539Y-75466552D01*
X130885892Y-75449498D01*
X130754108Y-75449498D01*
X130626812Y-75483606D01*
X130512686Y-75549498D01*
X130512683Y-75549500D01*
X130419502Y-75642681D01*
X130419500Y-75642684D01*
X130353608Y-75756810D01*
X130330607Y-75842653D01*
X130319500Y-75884106D01*
X129090500Y-75884106D01*
X129090500Y-74490249D01*
X129090499Y-74490247D01*
X129078868Y-74431773D01*
X129078866Y-74431767D01*
X129047288Y-74384507D01*
X130119500Y-74384507D01*
X130119500Y-74516290D01*
X130153608Y-74643586D01*
X130186554Y-74700649D01*
X130219500Y-74757713D01*
X130312686Y-74850899D01*
X130426814Y-74916791D01*
X130554108Y-74950899D01*
X130554110Y-74950899D01*
X130685890Y-74950899D01*
X130685892Y-74950899D01*
X130813186Y-74916791D01*
X130927314Y-74850899D01*
X131020500Y-74757713D01*
X131086392Y-74643585D01*
X131120500Y-74516291D01*
X131120500Y-74384507D01*
X131086392Y-74257213D01*
X131020500Y-74143085D01*
X130927314Y-74049899D01*
X130870250Y-74016953D01*
X130813187Y-73984007D01*
X130749539Y-73966953D01*
X130685892Y-73949899D01*
X130554108Y-73949899D01*
X130426812Y-73984007D01*
X130312686Y-74049899D01*
X130312683Y-74049901D01*
X130219502Y-74143082D01*
X130219500Y-74143085D01*
X130153608Y-74257211D01*
X130119500Y-74384507D01*
X129047288Y-74384507D01*
X129034552Y-74365447D01*
X128968230Y-74321132D01*
X128968229Y-74321131D01*
X128909752Y-74309500D01*
X128909748Y-74309500D01*
X127170252Y-74309500D01*
X127170247Y-74309500D01*
X127111770Y-74321131D01*
X127111769Y-74321132D01*
X127045447Y-74365447D01*
X127001132Y-74431769D01*
X127001131Y-74431770D01*
X126989500Y-74490247D01*
X125964155Y-74490247D01*
X125978186Y-72314108D01*
X150479500Y-72314108D01*
X150479500Y-72445891D01*
X150513608Y-72573187D01*
X150546554Y-72630250D01*
X150579500Y-72687314D01*
X150672686Y-72780500D01*
X150786814Y-72846392D01*
X150914108Y-72880500D01*
X150914110Y-72880500D01*
X151045890Y-72880500D01*
X151045892Y-72880500D01*
X151173186Y-72846392D01*
X151287314Y-72780500D01*
X151380500Y-72687314D01*
X151446392Y-72573186D01*
X151480500Y-72445892D01*
X151480500Y-72314108D01*
X151446392Y-72186814D01*
X151380500Y-72072686D01*
X151287314Y-71979500D01*
X151178005Y-71916390D01*
X151173187Y-71913608D01*
X151109539Y-71896554D01*
X151045892Y-71879500D01*
X150914108Y-71879500D01*
X150786812Y-71913608D01*
X150672686Y-71979500D01*
X150672683Y-71979502D01*
X150579502Y-72072683D01*
X150579500Y-72072686D01*
X150513608Y-72186812D01*
X150479500Y-72314108D01*
X125978186Y-72314108D01*
X125984183Y-71384106D01*
X148679500Y-71384106D01*
X148679500Y-71515889D01*
X148713608Y-71643185D01*
X148746554Y-71700248D01*
X148779500Y-71757312D01*
X148872686Y-71850498D01*
X148986814Y-71916390D01*
X149114108Y-71950498D01*
X149114110Y-71950498D01*
X149245890Y-71950498D01*
X149245892Y-71950498D01*
X149373186Y-71916390D01*
X149487314Y-71850498D01*
X149580500Y-71757312D01*
X149646392Y-71643184D01*
X149680500Y-71515890D01*
X149680500Y-71384106D01*
X149646392Y-71256812D01*
X149580500Y-71142684D01*
X149487314Y-71049498D01*
X149430250Y-71016552D01*
X149373187Y-70983606D01*
X149309539Y-70966552D01*
X149245892Y-70949498D01*
X149114108Y-70949498D01*
X148986812Y-70983606D01*
X148872686Y-71049498D01*
X148872683Y-71049500D01*
X148779502Y-71142681D01*
X148779500Y-71142684D01*
X148713608Y-71256810D01*
X148679500Y-71384106D01*
X125984183Y-71384106D01*
X126009251Y-67496184D01*
X126029367Y-67429276D01*
X126082465Y-67383863D01*
X126132269Y-67372991D01*
X154410000Y-67150000D01*
X155647253Y-67067516D01*
X155715452Y-67082697D01*
G37*
%TD.AperFunction*%
%TD*%
M02*
